<?xml version="1.0" encoding="utf-8"?>
<!-- Generator: Adobe Illustrator 23.0.5, SVG Export Plug-In . SVG Version: 6.00 Build 0)  -->
<svg version="1.1" xmlns="http://www.w3.org/2000/svg" xmlns:xlink="http://www.w3.org/1999/xlink" x="0px" y="0px"
	 viewBox="0 0 5760 3270" style="enable-background:new 0 0 5760 3270;" xml:space="preserve">
<style type="text/css">
	.st0{fill:#FFFFFF;}
	.st1{fill:url(#SVGID_1_);}
	.st2{fill:url(#SVGID_2_);}
	.st3{fill:url(#SVGID_3_);}
	.st4{clip-path:url(#SVGID_5_);}
	.st5{fill:url(#SVGID_6_);}
	.st6{fill:url(#SVGID_7_);}
	.st7{fill:url(#SVGID_8_);}
	.st8{fill:url(#SVGID_9_);}
	.st9{clip-path:url(#SVGID_11_);}
	.st10{fill:url(#SVGID_12_);}
	.st11{fill:url(#SVGID_13_);}
	.st12{fill:url(#SVGID_14_);}
	.st13{fill:url(#SVGID_15_);}
	.st14{fill:url(#SVGID_16_);}
	.st15{fill:url(#SVGID_17_);}
	.st16{fill:#F6C89F;}
	.st17{clip-path:url(#SVGID_19_);fill:url(#SVGID_20_);}
	.st18{clip-path:url(#SVGID_19_);}
	.st19{fill:url(#SVGID_21_);}
	.st20{fill:#3F7877;}
	.st21{clip-path:url(#SVGID_19_);fill:url(#SVGID_22_);}
	.st22{fill:#FEC3A5;}
	.st23{fill:#FEAB82;}
	.st24{fill:url(#SVGID_23_);}
	.st25{fill:url(#SVGID_24_);}
	.st26{fill:url(#SVGID_25_);}
	.st27{fill:url(#SVGID_26_);}
	.st28{fill:url(#SVGID_27_);}
	.st29{fill:url(#SVGID_28_);}
	.st30{clip-path:url(#SVGID_30_);fill:url(#SVGID_31_);}
	.st31{clip-path:url(#SVGID_30_);}
	.st32{fill:url(#SVGID_32_);}
	.st33{clip-path:url(#SVGID_30_);fill:url(#SVGID_33_);}
	.st34{fill:url(#SVGID_34_);}
	.st35{fill:url(#SVGID_35_);}
	.st36{fill:url(#SVGID_36_);}
	.st37{fill:url(#SVGID_37_);}
	.st38{fill:url(#SVGID_38_);}
	.st39{fill:url(#SVGID_39_);}
	.st40{fill:url(#SVGID_40_);}
	.st41{clip-path:url(#SVGID_42_);fill:url(#SVGID_43_);}
	.st42{clip-path:url(#SVGID_42_);fill:url(#SVGID_44_);}
	.st43{clip-path:url(#SVGID_42_);}
	.st44{fill:url(#SVGID_45_);}
	.st45{clip-path:url(#SVGID_42_);fill:url(#SVGID_46_);}
	.st46{fill:url(#SVGID_47_);}
	.st47{fill:url(#SVGID_48_);}
	.st48{fill:url(#SVGID_49_);}
	.st49{fill:url(#SVGID_50_);}
	.st50{fill:url(#SVGID_51_);}
	.st51{fill:#FFE7D1;}
	.st52{opacity:0.61;fill:#F6C89F;}
	.st53{opacity:0.34;fill:url(#SVGID_52_);}
	.st54{opacity:0.34;fill:url(#SVGID_53_);}
	.st55{opacity:0.34;fill:url(#SVGID_54_);}
	.st56{fill:url(#SVGID_55_);}
	.st57{fill:#2D333B;}
	.st58{fill:url(#SVGID_56_);}
	.st59{fill:url(#SVGID_57_);}
	.st60{fill:url(#SVGID_58_);}
	.st61{fill:url(#SVGID_59_);}
	.st62{fill:url(#SVGID_60_);}
	.st63{fill:url(#SVGID_61_);}
	.st64{fill:url(#SVGID_62_);}
	.st65{fill:url(#SVGID_63_);}
	.st66{fill:url(#SVGID_64_);}
	.st67{fill:url(#SVGID_65_);}
	.st68{fill:url(#SVGID_66_);}
	.st69{fill:#282E42;}
	.st70{fill:url(#SVGID_67_);}
	.st71{fill:url(#SVGID_68_);}
	.st72{fill:url(#SVGID_69_);}
	.st73{fill:url(#SVGID_70_);}
	.st74{fill:url(#SVGID_71_);}
	.st75{fill:url(#SVGID_72_);}
	.st76{fill:url(#SVGID_73_);}
	.st77{fill:url(#SVGID_74_);}
	.st78{opacity:0.47;fill:url(#SVGID_75_);}
	.st79{fill:none;}
	.st80{fill:url(#SVGID_76_);}
	.st81{fill:#396362;}
	.st82{fill:url(#SVGID_77_);}
	.st83{opacity:0.37;fill:url(#SVGID_78_);}
	.st84{fill:url(#SVGID_79_);}
	.st85{fill:url(#SVGID_80_);}
	.st86{fill:url(#SVGID_81_);}
</style>
<g id="background">
	<rect class="st0" width="5760" height="3270"/>
</g>
<g id="object">
	<g>
		<g>
			<g>
				<g>
					<linearGradient id="SVGID_1_" gradientUnits="userSpaceOnUse" x1="1767.0691" y1="757.4565" x2="1973.1221" y2="1113.8724">
						<stop  offset="0" style="stop-color:#FFF2E6"/>
						<stop  offset="0.3415" style="stop-color:#FFEFE1"/>
						<stop  offset="0.7438" style="stop-color:#FFE8D3"/>
						<stop  offset="0.7821" style="stop-color:#FFE7D1"/>
						<stop  offset="0.9749" style="stop-color:#FFE0C4"/>
					</linearGradient>
					<path class="st1" d="M2346.49,1132.68c0-104.27-72.9-191.5-170.5-213.55c-36.09-71.32-110.06-120.22-195.45-120.22
						c-107.83,0-197.45,77.95-215.58,180.58c-11.35-2.98-23.26-4.58-35.55-4.58c-77.05,0-139.52,62.46-139.52,139.52
						c0,9.18,0.9,18.15,2.59,26.83h753.83C2346.41,1138.42,2346.49,1135.56,2346.49,1132.68z"/>
				</g>
				<g>
					<linearGradient id="SVGID_2_" gradientUnits="userSpaceOnUse" x1="3676.5833" y1="708.3925" x2="3476.0994" y2="984.0579">
						<stop  offset="0" style="stop-color:#FFF2E6"/>
						<stop  offset="0.3415" style="stop-color:#FFEFE1"/>
						<stop  offset="0.7438" style="stop-color:#FFE8D3"/>
						<stop  offset="0.7821" style="stop-color:#FFE7D1"/>
						<stop  offset="0.9749" style="stop-color:#FFE0C4"/>
					</linearGradient>
					<path class="st2" d="M3846.81,1022.14c0-104.27-72.9-191.5-170.5-213.55c-36.09-71.32-110.06-120.22-195.45-120.22
						c-107.83,0-197.45,77.95-215.58,180.58c-11.35-2.98-23.26-4.58-35.55-4.58c-77.05,0-139.51,62.46-139.51,139.52
						c0,9.18,0.9,18.15,2.59,26.83h753.83C3846.74,1027.88,3846.81,1025.02,3846.81,1022.14z"/>
				</g>
				<g>
					<linearGradient id="SVGID_3_" gradientUnits="userSpaceOnUse" x1="2716.3538" y1="338.0497" x2="2658.8875" y2="625.3813">
						<stop  offset="0" style="stop-color:#FFF2E6"/>
						<stop  offset="0.4366" style="stop-color:#FFEFE1"/>
						<stop  offset="0.951" style="stop-color:#FFE8D3"/>
						<stop  offset="1" style="stop-color:#FFE7D1"/>
					</linearGradient>
					<path class="st3" d="M2903.95,647.34c0-68.31-47.76-125.47-111.71-139.91c-23.65-46.73-72.11-78.76-128.06-78.76
						c-70.65,0-129.36,51.07-141.24,118.31c-7.44-1.95-15.24-3-23.29-3c-50.48,0-91.41,40.92-91.41,91.41
						c0,6.01,0.59,11.89,1.7,17.58h493.89C2903.91,651.1,2903.95,649.22,2903.95,647.34z"/>
				</g>
			</g>
			<g>
				<g>
					<defs>
						<rect id="SVGID_4_" x="3285.22" y="1924.37" width="613.04" height="973.63"/>
					</defs>
					<clipPath id="SVGID_5_">
						<use xlink:href="#SVGID_4_"  style="overflow:visible;"/>
					</clipPath>
					<g class="st4">
						<linearGradient id="SVGID_6_" gradientUnits="userSpaceOnUse" x1="3719.7842" y1="2357.491" x2="3649.9844" y2="2636.6909">
							<stop  offset="0" style="stop-color:#639D9C"/>
							<stop  offset="1" style="stop-color:#4B8E8D"/>
						</linearGradient>
						<path class="st5" d="M3792.31,2664.19c16.14-14.03,31-27.54,44.5-40.23c-25.36,10.77-62.56,26.3-107.82,44.21
							c-94.38,37.36-135.6,50.19-158.52,60c-59.04,25.26-133.09,88.81-192.17,260.69c39.3-38.84,73.95-69.02,100.34-90.86
							C3598.45,2798.85,3670.2,2770.36,3792.31,2664.19z"/>
						<linearGradient id="SVGID_7_" gradientUnits="userSpaceOnUse" x1="3376.6733" y1="2808.1921" x2="3839.6384" y2="2808.1921">
							<stop  offset="0" style="stop-color:#639D9C"/>
							<stop  offset="1" style="stop-color:#4B8E8D"/>
						</linearGradient>
						<path class="st6" d="M3839.64,2622.76c-0.93,0.39-1.87,0.79-2.83,1.2c-13.5,12.69-28.36,26.2-44.5,40.23
							c-122.11,106.16-193.85,134.66-313.67,233.81c-26.39,21.84-61.05,52.02-100.34,90.86c-0.54,1.58-1.09,3.17-1.63,4.77
							c7.19-4.46,18.24-11.05,32.11-18.25c106.03-55.02,191.04-48.92,237.61-60.32C3706.37,2900.38,3780.58,2837.59,3839.64,2622.76
							z"/>
					</g>
					<g class="st4">
						
							<linearGradient id="SVGID_8_" gradientUnits="userSpaceOnUse" x1="2492.9771" y1="2413.2249" x2="2239.4929" y2="2567.5198" gradientTransform="matrix(-1 0 0 1 5760 0)">
							<stop  offset="0" style="stop-color:#597C7B"/>
							<stop  offset="1" style="stop-color:#396362"/>
						</linearGradient>
						<path class="st7" d="M3663.16,2178.71c11.19-36.25,20.94-70.51,29.41-102.27c-28.14,39.96-69.67,98.17-121.1,167.51
							c-107.26,144.61-157.37,202.53-182.74,238.75c-65.33,93.3-117.44,258.36-45.65,572.65c22.87-95.3,46.86-173.21,66.19-230.81
							C3497.05,2563.02,3578.5,2452.95,3663.16,2178.71z"/>
						
							<linearGradient id="SVGID_9_" gradientUnits="userSpaceOnUse" x1="2308.853" y1="2544.5374" x2="2092.1057" y2="2618.011" gradientTransform="matrix(-1 0 0 1 5760 0)">
							<stop  offset="0" style="stop-color:#597C7B"/>
							<stop  offset="1" style="stop-color:#396362"/>
						</linearGradient>
						<path class="st8" d="M3695.71,2071.98c-1.03,1.46-2.07,2.95-3.14,4.46c-8.47,31.76-18.22,66.02-29.41,102.27
							c-84.67,274.24-166.11,384.31-253.88,645.83c-19.33,57.6-43.32,135.51-66.19,230.81c0.66,2.89,1.33,5.79,2.01,8.71
							c6.66-13.45,17.15-33.73,31.31-57.54c108.29-182.12,242.1-252.47,301.62-313.23
							C3754.67,2615.03,3807.74,2450.97,3695.71,2071.98z"/>
					</g>
				</g>
				<g>
					<defs>
						
							<rect id="SVGID_10_" x="1789.36" y="1924.37" transform="matrix(-1 -4.100954e-11 4.100954e-11 -1 4191.7529 4822.3662)" width="613.04" height="973.63"/>
					</defs>
					<clipPath id="SVGID_11_">
						<use xlink:href="#SVGID_10_"  style="overflow:visible;"/>
					</clipPath>
					<g class="st9">
						
							<linearGradient id="SVGID_12_" gradientUnits="userSpaceOnUse" x1="5715.5151" y1="2357.491" x2="5645.7153" y2="2636.6909" gradientTransform="matrix(-1 0 0 1 7683.3438 0)">
							<stop  offset="0" style="stop-color:#639D9C"/>
							<stop  offset="1" style="stop-color:#4B8E8D"/>
						</linearGradient>
						<path class="st10" d="M1895.31,2664.19c-16.14-14.03-31-27.54-44.5-40.23c25.36,10.77,62.56,26.3,107.82,44.21
							c94.37,37.36,135.6,50.19,158.52,60c59.04,25.26,133.09,88.81,192.17,260.69c-39.3-38.84-73.95-69.02-100.34-90.86
							C2089.16,2798.85,2017.41,2770.36,1895.31,2664.19z"/>
						
							<linearGradient id="SVGID_13_" gradientUnits="userSpaceOnUse" x1="5372.4043" y1="2808.1921" x2="5835.3691" y2="2808.1921" gradientTransform="matrix(-1 0 0 1 7683.3438 0)">
							<stop  offset="0" style="stop-color:#639D9C"/>
							<stop  offset="1" style="stop-color:#4B8E8D"/>
						</linearGradient>
						<path class="st11" d="M1847.97,2622.76c0.93,0.39,1.87,0.79,2.83,1.2c13.5,12.69,28.36,26.2,44.5,40.23
							c122.11,106.16,193.85,134.66,313.67,233.81c26.39,21.84,61.05,52.02,100.34,90.86c0.54,1.58,1.09,3.17,1.63,4.77
							c-7.19-4.46-18.24-11.05-32.11-18.25c-106.03-55.02-191.04-48.92-237.61-60.32
							C1981.24,2900.38,1907.04,2837.59,1847.97,2622.76z"/>
					</g>
					<g class="st9">
						
							<linearGradient id="SVGID_14_" gradientUnits="userSpaceOnUse" x1="497.2462" y1="2413.2249" x2="243.762" y2="2567.5198" gradientTransform="matrix(1 0 0 1 1923.3435 0)">
							<stop  offset="0" style="stop-color:#597C7B"/>
							<stop  offset="1" style="stop-color:#396362"/>
						</linearGradient>
						<path class="st12" d="M2024.45,2178.71c-11.19-36.25-20.94-70.51-29.41-102.27c28.14,39.96,69.67,98.17,121.1,167.51
							c107.26,144.61,157.37,202.53,182.74,238.75c65.33,93.3,117.44,258.36,45.65,572.65c-22.87-95.3-46.86-173.21-66.19-230.81
							C2190.56,2563.02,2109.12,2452.95,2024.45,2178.71z"/>
						
							<linearGradient id="SVGID_15_" gradientUnits="userSpaceOnUse" x1="313.1222" y1="2544.5374" x2="96.3748" y2="2618.011" gradientTransform="matrix(1 0 0 1 1923.3435 0)">
							<stop  offset="0" style="stop-color:#597C7B"/>
							<stop  offset="1" style="stop-color:#396362"/>
						</linearGradient>
						<path class="st13" d="M1991.9,2071.98c1.03,1.46,2.07,2.95,3.14,4.46c8.47,31.76,18.22,66.02,29.41,102.27
							c84.67,274.24,166.11,384.31,253.88,645.83c19.33,57.6,43.32,135.51,66.19,230.81c-0.66,2.89-1.33,5.79-2.01,8.71
							c-6.66-13.45-17.15-33.73-31.31-57.54c-108.29-182.12-242.1-252.47-301.62-313.23
							C1932.94,2615.03,1879.88,2450.97,1991.9,2071.98z"/>
					</g>
				</g>
			</g>
		</g>
		<g>
			<linearGradient id="SVGID_16_" gradientUnits="userSpaceOnUse" x1="2027.4922" y1="2282.4585" x2="3926.521" y2="1168.6588">
				<stop  offset="0" style="stop-color:#5E9A99"/>
				<stop  offset="1" style="stop-color:#4B8E8D"/>
			</linearGradient>
			<path class="st14" d="M3252.54,2898h-847.41c-104.85,0-189.86-85-189.86-189.86V916.79c0-104.85,85-189.86,189.86-189.86h847.41
				c104.85,0,189.86,85,189.86,189.86v1791.36C3442.39,2813,3357.39,2898,3252.54,2898z"/>
			<linearGradient id="SVGID_17_" gradientUnits="userSpaceOnUse" x1="2278.7688" y1="1812.4657" x2="3378.8911" y2="1812.4657">
				<stop  offset="0" style="stop-color:#FFF2E6"/>
				<stop  offset="0.4366" style="stop-color:#FFEFE1"/>
				<stop  offset="0.951" style="stop-color:#FFE8D3"/>
				<stop  offset="1" style="stop-color:#FFE7D1"/>
			</linearGradient>
			<path class="st15" d="M3208.69,2785.65h-759.71c-94,0-170.21-76.2-170.21-170.21V1009.49c0-94,76.2-170.21,170.21-170.21h759.71
				c94,0,170.21,76.2,170.21,170.21v1605.96C3378.89,2709.45,3302.69,2785.65,3208.69,2785.65z"/>
			<g>
				<g>
					<g>
						<circle class="st16" cx="2593.11" cy="1829.3" r="175.63"/>
						<g>
							<defs>
								<circle id="SVGID_18_" cx="2593.11" cy="1829.3" r="175.63"/>
							</defs>
							<clipPath id="SVGID_19_">
								<use xlink:href="#SVGID_18_"  style="overflow:visible;"/>
							</clipPath>
							
								<linearGradient id="SVGID_20_" gradientUnits="userSpaceOnUse" x1="2597.8071" y1="1890.3969" x2="2691.5903" y2="1890.3969">
								<stop  offset="0" style="stop-color:#4B5566"/>
								<stop  offset="1" style="stop-color:#2D334A"/>
							</linearGradient>
							<path class="st17" d="M2601.62,1781.28c8.3-7.29,25.67,0.23,28.07,1.28c51.17,22.17,48.92,128.53,48.49,142.29
								c4.47,23.61,8.93,47.22,13.4,70.82c-14.87,8.46-24.33,7.66-29.99,5.74c-25.75-8.73-16.28-55.36-41.47-137.18
								C2606.23,1819.11,2590.38,1791.16,2601.62,1781.28z"/>
							<g class="st18">
								
									<linearGradient id="SVGID_21_" gradientUnits="userSpaceOnUse" x1="17.6052" y1="1981.8956" x2="-206.2966" y2="1832.6278" gradientTransform="matrix(1 0 0 1 2671.7949 0)">
									<stop  offset="0" style="stop-color:#5E9A99"/>
									<stop  offset="1" style="stop-color:#4B8E8D"/>
								</linearGradient>
								<path class="st19" d="M2511.47,2022.86l-7.09-191.31c0.4-10,2.84-34.78,21.46-54.49c0.05-0.05,0.09-0.1,0.14-0.15
									c8.7-9.16,20.47-10.94,26.5-11.86c48.48-7.39,76.91,17.58,76.91,17.58c6.4,7.21,14.96,18.22,22.18,33.06
									c15.25,31.37,14.1,58.51,14.15,97.77c0.04,25.79,0.6,62.98,3.15,109.41C2616.4,2022.86,2563.94,2022.86,2511.47,2022.86z"/>
								<path class="st20" d="M2601.88,1781.37c3.52-0.67,7.32-1.81,9.87-5.04c0.79-1,1.4-2.13,1.84-3.32
									c-12.8-5.95-33.01-11.82-59.25-8.23c0,0.81,0.09,1.66,0.29,2.51C2557.77,1780.99,2585.88,1784.4,2601.88,1781.37z"/>
								<path class="st20" d="M2597.16,2022.86c-12.13-36.07-24.26-72.14-36.38-108.21c4.61-8.17,20.65-38.91,11.54-75.92
									c-6.31-25.63-23.05-47.59-45.99-62.18c-0.12,0.12-0.23,0.23-0.35,0.35c-0.05,0.05-0.09,0.1-0.14,0.15
									c-18.62,19.71-21.06,44.49-21.46,54.49l7.09,191.31C2540.04,2022.86,2568.6,2022.86,2597.16,2022.86z"/>
							</g>
							<linearGradient id="SVGID_22_" gradientUnits="userSpaceOnUse" x1="2489.291" y1="1902.4335" x2="2576.7393" y2="1902.4335">
								<stop  offset="0" style="stop-color:#4B5566"/>
								<stop  offset="1" style="stop-color:#2D334A"/>
							</linearGradient>
							<path class="st21" d="M2500.17,1806.16c7.12-14.99,22.79-39.28,36.37-37.01c17.38,2.91,22.73,47.89,24.25,60.62
								c4.28,35.94-2.23,66.03-8.29,85.5c8.08,38.71,16.16,77.42,24.25,116.13c-11.49,1.49-22.97,2.98-34.46,4.47
								c-20.41-38.68-31.74-72.75-38.28-96.99C2491.57,1892.86,2480.16,1848.28,2500.17,1806.16z"/>
							<g class="st18">
								<g>
									<g>
										<path class="st22" d="M2569.04,1742.52l-9.74,26.43c-0.6,1.61,0.64,3.29,2.8,3.79c5.35,1.25,12.49,2.41,20.96,2.47
											c8.34,0.06,15.3-0.95,20.3-1.99v-30.7H2569.04z"/>
										<path class="st23" d="M2603.35,1742.52h-34.31l-9.74,26.43c-0.6,1.61,0.64,3.29,2.8,3.79c0.82,0.19,1.69,0.38,2.59,0.56
											c1.85-4.03,4.07-9.83,6.74-17.97c3.81,1.38,9.89,3.02,17.43,2.73c5.65-0.22,10.54-1.47,14.49-2.97V1742.52z"/>
									</g>
									<g>
										<path class="st22" d="M2607.42,1685.22c3.02,3.36,4.09,7.62,6.11,15.99c4.64,19.28,8.11,33.69,0,43.11
											c-8.67,10.07-25.15,8.11-28.38,7.72c-2.2-0.26-16.71-2.22-26.41-14.55c-11-13.99-13.82-38.81,1.26-52.45
											C2573.86,1672.49,2597.53,1674.22,2607.42,1685.22z"/>
										<path class="st23" d="M2574.79,1704.51c4.92,1.35,13.35,2.95,23.52,1.26c5.83-0.97,10.89-2.79,15.14-4.89
											c-1.11-4.6-1.94-7.94-2.98-10.57c-4.08-0.05-8.49-0.08-13.21-0.07c-23.92,0.01-26.84,0.8-29.82,2.52
											c-9.45,5.45-15.23,17.8-16.03,30.15c1.57,5.43,4.1,10.48,7.33,14.59c2.97,3.78,6.39,6.58,9.77,8.66
											c-0.66-4.44-1.58-10.47-1.07-17.49C2568.18,1718.45,2571.67,1710.2,2574.79,1704.51z"/>
									</g>
									
										<linearGradient id="SVGID_23_" gradientUnits="userSpaceOnUse" x1="2655.4893" y1="1678.7903" x2="2595.1765" y2="1694.8025">
										<stop  offset="0" style="stop-color:#4B5566"/>
										<stop  offset="1" style="stop-color:#2D334A"/>
									</linearGradient>
									<path class="st24" d="M2624.01,1669.05c-4.07-4.91-10.37-6.52-16.14-5.77c-2.53-1.98-5.71-3.17-9.17-3.17
										c-0.05,0-0.09,0.01-0.14,0.01c-3.3-2.17-7.44-3.04-11.58-2.07c-3.08,0.72-5.69,2.37-7.66,4.56
										c-0.78-0.13-1.58-0.21-2.4-0.21c-3.06,0-5.89,0.93-8.26,2.51c-0.78,0.05-1.58,0.16-2.37,0.35
										c-5.26,1.23-9.19,5.11-10.76,9.9c-5.48,0.76-9.92,4.73-11.36,9.97c-3.63,3.25-5.42,8.33-4.22,13.4
										c0.23,0.96,0.56,1.87,0.97,2.73c-1.15,1.66-1.83,3.67-1.83,5.85c0,1.56,0.36,3.03,0.98,4.36c-0.69,1.84-0.87,3.9-0.38,5.96
										c1.1,4.68,5.22,7.84,9.81,7.95c4.73,9.98,12.46,15.69,13.98,16.78c-1.68-3.72-3.49-9.07-3.77-15.63
										c-0.71-16.75,9.09-28.65,12.09-32.02c0.1-0.01,0.21-0.04,0.31-0.06c13.56,6.07,24.79,6.01,30.71,5.49
										c7.9-0.7,15.74-1.4,20.66-7.72C2627.92,1686.49,2629.94,1676.2,2624.01,1669.05z"/>
								</g>
								<g>
									
										<linearGradient id="SVGID_24_" gradientUnits="userSpaceOnUse" x1="3159.592" y1="1770.8647" x2="3208.1072" y2="1770.8647" gradientTransform="matrix(-1 0 0 1 5760 0)">
										<stop  offset="0" style="stop-color:#4B5566"/>
										<stop  offset="1" style="stop-color:#2D334A"/>
									</linearGradient>
									<path class="st25" d="M2600.41,1773.81c-3.5,3.08-7,6.16-10.5,9.24c-11.64,0.95-20.1-1.58-24.99-3.57
										c-5.69-2.31-12.79-5.19-13.02-10.08c-0.19-4.08,4.46-8.49,11.34-10.92c7.54,3.19,15.1,6.34,22.68,9.45
										C2590.74,1769.9,2595.57,1771.86,2600.41,1773.81z"/>
									
										<linearGradient id="SVGID_25_" gradientUnits="userSpaceOnUse" x1="3146.0579" y1="1769.922" x2="3159.592" y2="1769.922" gradientTransform="matrix(-1 0 0 1 5760 0)">
										<stop  offset="0" style="stop-color:#4B5566"/>
										<stop  offset="1" style="stop-color:#2D334A"/>
									</linearGradient>
									<path class="st26" d="M2603.35,1761.21c1.56,0.57,4.35,1.85,6.72,4.62c4.46,5.21,3.92,11.54,3.78,12.81
										c-4.48-1.61-8.96-3.22-13.44-4.83C2601.39,1769.61,2602.37,1765.41,2603.35,1761.21z"/>
								</g>
							</g>
						</g>
					</g>
					<g>
						<g>
							<linearGradient id="SVGID_26_" gradientUnits="userSpaceOnUse" x1="2881.6011" y1="1700.312" x2="2971.885" y2="1700.312">
								<stop  offset="0" style="stop-color:#5E9A99"/>
								<stop  offset="1" style="stop-color:#4B8E8D"/>
							</linearGradient>
							<path class="st27" d="M2925.4,1730.73l-23.44,12.32c-2.11,1.11-4.58-0.68-4.18-3.03l4.48-26.1c0.16-0.93-0.15-1.89-0.83-2.55
								l-18.96-18.48c-1.71-1.67-0.77-4.57,1.6-4.91l26.21-3.81c0.94-0.14,1.75-0.73,2.17-1.57l11.72-23.75
								c1.06-2.14,4.11-2.14,5.16,0l11.72,23.75c0.42,0.85,1.23,1.44,2.17,1.57l26.21,3.81c2.36,0.34,3.3,3.24,1.6,4.91
								l-18.96,18.48c-0.68,0.66-0.99,1.61-0.83,2.55l4.48,26.1c0.4,2.35-2.06,4.15-4.18,3.03l-23.44-12.32
								C2927.24,1730.29,2926.24,1730.29,2925.4,1730.73z"/>
							<linearGradient id="SVGID_27_" gradientUnits="userSpaceOnUse" x1="2980.0842" y1="1700.312" x2="3070.3682" y2="1700.312">
								<stop  offset="0" style="stop-color:#5E9A99"/>
								<stop  offset="1" style="stop-color:#4B8E8D"/>
							</linearGradient>
							<path class="st28" d="M3023.89,1730.73l-23.44,12.32c-2.11,1.11-4.58-0.68-4.18-3.03l4.48-26.1
								c0.16-0.93-0.15-1.89-0.83-2.55l-18.96-18.48c-1.71-1.67-0.77-4.57,1.6-4.91l26.21-3.81c0.94-0.14,1.75-0.73,2.17-1.57
								l11.72-23.75c1.06-2.14,4.11-2.14,5.16,0l11.72,23.75c0.42,0.85,1.23,1.44,2.17,1.57l26.21,3.81c2.36,0.34,3.3,3.24,1.6,4.91
								l-18.96,18.48c-0.68,0.66-0.99,1.61-0.83,2.55l4.48,26.1c0.4,2.35-2.06,4.15-4.18,3.03l-23.44-12.32
								C3025.73,1730.29,3024.73,1730.29,3023.89,1730.73z"/>
							<linearGradient id="SVGID_28_" gradientUnits="userSpaceOnUse" x1="3078.5674" y1="1700.312" x2="3168.8513" y2="1700.312">
								<stop  offset="0" style="stop-color:#5E9A99"/>
								<stop  offset="1" style="stop-color:#4B8E8D"/>
							</linearGradient>
							<path class="st29" d="M3122.37,1730.73l-23.44,12.32c-2.11,1.11-4.58-0.68-4.18-3.03l4.48-26.1
								c0.16-0.93-0.15-1.89-0.83-2.55l-18.96-18.48c-1.71-1.67-0.77-4.57,1.6-4.91l26.21-3.81c0.94-0.14,1.75-0.73,2.17-1.57
								l11.72-23.75c1.06-2.14,4.11-2.14,5.16,0l11.72,23.75c0.42,0.85,1.23,1.44,2.17,1.57l26.21,3.81c2.36,0.34,3.3,3.24,1.6,4.91
								l-18.96,18.48c-0.68,0.66-0.99,1.61-0.83,2.55l4.48,26.1c0.4,2.35-2.06,4.15-4.18,3.03l-23.44-12.32
								C3124.21,1730.29,3123.21,1730.29,3122.37,1730.73z"/>
						</g>
						<g>
							<path class="st16" d="M3299.17,1812.2h-397.18c-11.26,0-20.39-9.13-20.39-20.39v-2.99c0-11.26,9.13-20.39,20.39-20.39h397.18
								c11.26,0,20.39,9.13,20.39,20.39v2.99C3319.56,1803.07,3310.43,1812.2,3299.17,1812.2z"/>
							<path class="st16" d="M3299.17,1906.78h-397.18c-11.26,0-20.39-9.13-20.39-20.39v-2.99c0-11.26,9.13-20.39,20.39-20.39
								h397.18c11.26,0,20.39,9.13,20.39,20.39v2.99C3319.56,1897.65,3310.43,1906.78,3299.17,1906.78z"/>
							<path class="st16" d="M3299.17,2001.35h-397.18c-11.26,0-20.39-9.13-20.39-20.39v-2.99c0-11.26,9.13-20.39,20.39-20.39
								h397.18c11.26,0,20.39,9.13,20.39,20.39v2.99C3319.56,1992.23,3310.43,2001.35,3299.17,2001.35z"/>
						</g>
					</g>
				</g>
				<g>
					<g>
						<circle class="st16" cx="2593.11" cy="1202.8" r="233.88"/>
						<g>
							<defs>
								<circle id="SVGID_29_" cx="2593.11" cy="1202.8" r="233.88"/>
							</defs>
							<clipPath id="SVGID_30_">
								<use xlink:href="#SVGID_29_"  style="overflow:visible;"/>
							</clipPath>
							
								<linearGradient id="SVGID_31_" gradientUnits="userSpaceOnUse" x1="2599.3645" y1="1284.1649" x2="2724.2493" y2="1284.1649">
								<stop  offset="0" style="stop-color:#4B5566"/>
								<stop  offset="1" style="stop-color:#2D334A"/>
							</linearGradient>
							<path class="st30" d="M2604.45,1138.86c11.05-9.71,34.18,0.31,37.39,1.7c68.14,29.52,65.14,171.15,64.57,189.47
								c5.95,31.44,11.9,62.88,17.84,94.31c-19.8,11.26-32.4,10.2-39.93,7.65c-34.29-11.62-21.67-73.72-55.23-182.68
								C2610.58,1189.23,2589.47,1152.02,2604.45,1138.86z"/>
							<g class="st31">
								
									<linearGradient id="SVGID_32_" gradientUnits="userSpaceOnUse" x1="49.5377" y1="1406.0074" x2="-248.6167" y2="1207.2379" gradientTransform="matrix(1 0 0 1 2671.7949 0)">
									<stop  offset="0" style="stop-color:#5E9A99"/>
									<stop  offset="1" style="stop-color:#4B8E8D"/>
								</linearGradient>
								<path class="st32" d="M2484.4,1460.56l-9.44-254.76c0.53-13.32,3.78-46.31,28.57-72.57c0.06-0.07,0.12-0.13,0.19-0.2
									c11.59-12.2,27.26-14.56,35.29-15.79c64.56-9.84,102.41,23.41,102.41,23.41c8.52,9.6,19.92,24.26,29.53,44.03
									c20.31,41.78,18.77,77.92,18.84,130.19c0.05,34.35,0.8,83.87,4.19,145.69C2624.13,1460.56,2554.26,1460.56,2484.4,1460.56z"
									/>
								<path class="st20" d="M2604.79,1138.98c4.69-0.89,9.75-2.41,13.14-6.71c1.06-1.34,1.86-2.83,2.45-4.42
									c-17.04-7.92-43.95-15.74-78.9-10.95c0.01,1.08,0.12,2.21,0.38,3.35C2546.06,1138.47,2583.48,1143.01,2604.79,1138.98z"/>
								<path class="st20" d="M2598.51,1460.56c-16.15-48.03-32.3-96.06-48.45-144.1c6.14-10.88,27.5-51.82,15.36-101.1
									c-8.41-34.13-30.7-63.38-61.24-82.8c-0.16,0.16-0.31,0.31-0.47,0.47c-0.06,0.07-0.12,0.13-0.19,0.2
									c-24.8,26.25-28.04,59.25-28.57,72.57l9.44,254.76C2522.44,1460.56,2560.47,1460.56,2598.51,1460.56z"/>
							</g>
							
								<linearGradient id="SVGID_33_" gradientUnits="userSpaceOnUse" x1="2454.8611" y1="1300.1932" x2="2571.3098" y2="1300.1932">
								<stop  offset="0" style="stop-color:#4B5566"/>
								<stop  offset="1" style="stop-color:#2D334A"/>
							</linearGradient>
							<path class="st33" d="M2469.35,1171.99c9.48-19.96,30.35-52.31,48.43-49.28c23.14,3.88,30.27,63.77,32.29,80.72
								c5.7,47.86-2.97,87.93-11.05,113.85c10.76,51.55,21.52,103.09,32.29,154.64c-15.29,1.98-30.59,3.97-45.88,5.95
								c-27.18-51.51-42.26-96.88-50.98-129.15C2457.89,1287.44,2442.7,1228.08,2469.35,1171.99z"/>
							<g class="st31">
								<g>
									<g>
										<path class="st22" d="M2561.06,1087.24l-12.97,35.19c-0.79,2.15,0.85,4.38,3.72,5.05c7.13,1.66,16.63,3.21,27.91,3.3
											c11.1,0.09,20.37-1.27,27.03-2.65v-40.88H2561.06z"/>
										<path class="st23" d="M2606.74,1087.24h-45.69l-12.97,35.19c-0.79,2.15,0.85,4.38,3.72,5.05
											c1.09,0.25,2.25,0.51,3.45,0.75c2.46-5.37,5.42-13.08,8.98-23.93c5.07,1.83,13.17,4.03,23.21,3.64
											c7.52-0.29,14.03-1.96,19.29-3.96V1087.24z"/>
									</g>
									<g>
										<path class="st22" d="M2612.16,1010.94c4.03,4.48,5.45,10.14,8.13,21.29c6.18,25.68,10.8,44.87,0,57.41
											c-11.55,13.41-33.49,10.8-37.79,10.29c-2.93-0.35-22.25-2.95-35.16-19.38c-14.65-18.63-18.4-51.68,1.67-69.85
											C2567.48,993.99,2598.99,996.3,2612.16,1010.94z"/>
										<path class="st23" d="M2568.71,1036.63c6.55,1.8,17.77,3.93,31.32,1.68c7.76-1.29,14.5-3.72,20.16-6.52
											c-1.48-6.13-2.58-10.57-3.97-14.08c-5.43-0.06-11.31-0.1-17.59-0.1c-31.85,0.01-35.74,1.07-39.71,3.36
											c-12.59,7.26-20.28,23.71-21.35,40.15c2.09,7.23,5.46,13.95,9.77,19.43c3.95,5.03,8.51,8.76,13.01,11.53
											c-0.87-5.91-2.1-13.94-1.42-23.29C2559.92,1055.19,2564.56,1044.21,2568.71,1036.63z"/>
									</g>
									
										<linearGradient id="SVGID_34_" gradientUnits="userSpaceOnUse" x1="2679.0088" y1="1034.1263" x2="2788.0933" y2="1034.1263" gradientTransform="matrix(1 0 0 1 -148.9364 0)">
										<stop  offset="0" style="stop-color:#4B5566"/>
										<stop  offset="1" style="stop-color:#2D334A"/>
									</linearGradient>
									<path class="st34" d="M2553.64,1086.77c-2.24-4.95-4.65-12.08-5.02-20.81c-0.96-22.57,12.45-38.56,16.27-42.82
										c18.17,8.2,33.23,8.12,41.14,7.42c10.51-0.93,20.95-1.86,27.51-10.29c5.94-7.63,8.62-21.33,0.72-30.86
										c-8.75-10.55-25.23-9.66-33.97-2.63c-3.35,2.7-5.2,6-6.22,8.37c-3.65-1.27-21.3-6.97-38.75,2.15
										c-19.02,9.95-26.32,31.51-25.12,48.8C2531.91,1070.77,2550.81,1084.75,2553.64,1086.77z"/>
								</g>
								<g>
									
										<linearGradient id="SVGID_35_" gradientUnits="userSpaceOnUse" x1="3157.1721" y1="1124.9923" x2="3221.7764" y2="1124.9923" gradientTransform="matrix(-1 0 0 1 5760 0)">
										<stop  offset="0" style="stop-color:#4B5566"/>
										<stop  offset="1" style="stop-color:#2D334A"/>
									</linearGradient>
									<path class="st35" d="M2602.83,1128.91c-4.66,4.1-9.32,8.2-13.98,12.3c-15.49,1.26-26.77-2.11-33.28-4.75
										c-7.58-3.08-17.03-6.92-17.34-13.42c-0.26-5.44,5.94-11.3,15.1-14.54c10.04,4.25,20.11,8.45,30.2,12.58
										C2589.96,1123.71,2596.39,1126.32,2602.83,1128.91z"/>
									
										<linearGradient id="SVGID_36_" gradientUnits="userSpaceOnUse" x1="3139.1497" y1="1123.7369" x2="3157.1721" y2="1123.7369" gradientTransform="matrix(-1 0 0 1 5760 0)">
										<stop  offset="0" style="stop-color:#4B5566"/>
										<stop  offset="1" style="stop-color:#2D334A"/>
									</linearGradient>
									<path class="st36" d="M2606.74,1112.13c2.08,0.77,5.79,2.47,8.95,6.15c5.94,6.93,5.21,15.37,5.03,17.06
										c-5.97-2.14-11.93-4.29-17.9-6.43C2604.13,1123.32,2605.44,1117.72,2606.74,1112.13z"/>
								</g>
							</g>
						</g>
					</g>
					<g>
						<g>
							<linearGradient id="SVGID_37_" gradientUnits="userSpaceOnUse" x1="2881.6011" y1="1073.8174" x2="2971.885" y2="1073.8174">
								<stop  offset="0" style="stop-color:#5E9A99"/>
								<stop  offset="1" style="stop-color:#4B8E8D"/>
							</linearGradient>
							<path class="st37" d="M2925.4,1104.23l-23.44,12.32c-2.11,1.11-4.58-0.68-4.18-3.03l4.48-26.1c0.16-0.93-0.15-1.89-0.83-2.55
								l-18.96-18.48c-1.71-1.67-0.77-4.57,1.6-4.91l26.21-3.81c0.94-0.14,1.75-0.73,2.17-1.57l11.72-23.75
								c1.06-2.14,4.11-2.14,5.16,0l11.72,23.75c0.42,0.85,1.23,1.44,2.17,1.57l26.21,3.81c2.36,0.34,3.3,3.24,1.6,4.91
								l-18.96,18.48c-0.68,0.66-0.99,1.61-0.83,2.55l4.48,26.1c0.4,2.35-2.06,4.15-4.18,3.03l-23.44-12.32
								C2927.24,1103.79,2926.24,1103.79,2925.4,1104.23z"/>
							
								<linearGradient id="SVGID_38_" gradientUnits="userSpaceOnUse" x1="2980.0842" y1="1073.8174" x2="3070.3682" y2="1073.8174">
								<stop  offset="0" style="stop-color:#5E9A99"/>
								<stop  offset="1" style="stop-color:#4B8E8D"/>
							</linearGradient>
							<path class="st38" d="M3023.89,1104.23l-23.44,12.32c-2.11,1.11-4.58-0.68-4.18-3.03l4.48-26.1
								c0.16-0.93-0.15-1.89-0.83-2.55l-18.96-18.48c-1.71-1.67-0.77-4.57,1.6-4.91l26.21-3.81c0.94-0.14,1.75-0.73,2.17-1.57
								l11.72-23.75c1.06-2.14,4.11-2.14,5.16,0l11.72,23.75c0.42,0.85,1.23,1.44,2.17,1.57l26.21,3.81c2.36,0.34,3.3,3.24,1.6,4.91
								l-18.96,18.48c-0.68,0.66-0.99,1.61-0.83,2.55l4.48,26.1c0.4,2.35-2.06,4.15-4.18,3.03l-23.44-12.32
								C3025.73,1103.79,3024.73,1103.79,3023.89,1104.23z"/>
							
								<linearGradient id="SVGID_39_" gradientUnits="userSpaceOnUse" x1="3078.5674" y1="1073.8174" x2="3168.8513" y2="1073.8174">
								<stop  offset="0" style="stop-color:#5E9A99"/>
								<stop  offset="1" style="stop-color:#4B8E8D"/>
							</linearGradient>
							<path class="st39" d="M3122.37,1104.23l-23.44,12.32c-2.11,1.11-4.58-0.68-4.18-3.03l4.48-26.1
								c0.16-0.93-0.15-1.89-0.83-2.55l-18.96-18.48c-1.71-1.67-0.77-4.57,1.6-4.91l26.21-3.81c0.94-0.14,1.75-0.73,2.17-1.57
								l11.72-23.75c1.06-2.14,4.11-2.14,5.16,0l11.72,23.75c0.42,0.85,1.23,1.44,2.17,1.57l26.21,3.81c2.36,0.34,3.3,3.24,1.6,4.91
								l-18.96,18.48c-0.68,0.66-0.99,1.61-0.83,2.55l4.48,26.1c0.4,2.35-2.06,4.15-4.18,3.03l-23.44-12.32
								C3124.21,1103.79,3123.21,1103.79,3122.37,1104.23z"/>
							
								<linearGradient id="SVGID_40_" gradientUnits="userSpaceOnUse" x1="3177.0505" y1="1073.8174" x2="3267.3345" y2="1073.8174">
								<stop  offset="0" style="stop-color:#5E9A99"/>
								<stop  offset="1" style="stop-color:#4B8E8D"/>
							</linearGradient>
							<path class="st40" d="M3220.85,1104.23l-23.44,12.32c-2.11,1.11-4.58-0.68-4.18-3.03l4.48-26.1
								c0.16-0.93-0.15-1.89-0.83-2.55l-18.96-18.48c-1.71-1.67-0.77-4.57,1.6-4.91l26.21-3.81c0.94-0.14,1.75-0.73,2.17-1.57
								l11.72-23.75c1.06-2.14,4.11-2.14,5.16,0l11.72,23.75c0.42,0.85,1.23,1.44,2.17,1.57l26.21,3.81c2.36,0.34,3.3,3.24,1.6,4.91
								l-18.96,18.48c-0.68,0.66-0.99,1.61-0.83,2.55l4.48,26.1c0.4,2.35-2.07,4.15-4.18,3.03l-23.44-12.32
								C3222.69,1103.79,3221.69,1103.79,3220.85,1104.23z"/>
						</g>
						<g>
							<path class="st16" d="M3299.17,1185.7h-397.18c-11.26,0-20.39-9.13-20.39-20.39v-2.99c0-11.26,9.13-20.39,20.39-20.39h397.18
								c11.26,0,20.39,9.13,20.39,20.39v2.99C3319.56,1176.57,3310.43,1185.7,3299.17,1185.7z"/>
							<path class="st16" d="M3299.17,1280.28h-397.18c-11.26,0-20.39-9.13-20.39-20.39v-2.99c0-11.26,9.13-20.39,20.39-20.39
								h397.18c11.26,0,20.39,9.13,20.39,20.39v2.99C3319.56,1271.15,3310.43,1280.28,3299.17,1280.28z"/>
							<path class="st16" d="M3299.17,1374.86h-397.18c-11.26,0-20.39-9.13-20.39-20.39v-2.99c0-11.26,9.13-20.39,20.39-20.39
								h397.18c11.26,0,20.39,9.13,20.39,20.39v2.99C3319.56,1365.73,3310.43,1374.86,3299.17,1374.86z"/>
						</g>
					</g>
				</g>
				<g>
					<g>
						<circle class="st16" cx="2593.11" cy="2392.73" r="175.63"/>
						<g>
							<defs>
								<circle id="SVGID_41_" cx="2593.11" cy="2392.73" r="175.63"/>
							</defs>
							<clipPath id="SVGID_42_">
								<use xlink:href="#SVGID_41_"  style="overflow:visible;"/>
							</clipPath>
							<linearGradient id="SVGID_43_" gradientUnits="userSpaceOnUse" x1="2448.1379" y1="2366.8772" x2="2536.3811" y2="2322.26">
								<stop  offset="0" style="stop-color:#4B5566"/>
								<stop  offset="1" style="stop-color:#2D334A"/>
							</linearGradient>
							<path class="st41" d="M2621.63,2292.32c0-29.76-24.12-53.88-53.88-53.88c-26.56,0-48.62,19.23-53.05,44.52
								c-23.62,6.64-40.95,28.32-40.95,54.07c0,31.02,25.15,56.17,56.17,56.17c28.97,0,52.81-21.93,55.84-50.1
								C2606.66,2335.7,2621.63,2315.76,2621.63,2292.32z"/>
							
								<linearGradient id="SVGID_44_" gradientUnits="userSpaceOnUse" x1="2597.8071" y1="2453.8286" x2="2691.5903" y2="2453.8286">
								<stop  offset="0" style="stop-color:#4B5566"/>
								<stop  offset="1" style="stop-color:#2D334A"/>
							</linearGradient>
							<path class="st42" d="M2601.62,2344.71c8.3-7.29,25.67,0.23,28.07,1.28c51.17,22.17,48.92,128.53,48.49,142.29
								c4.47,23.61,8.93,47.22,13.4,70.82c-14.87,8.46-24.33,7.66-29.99,5.74c-25.75-8.73-16.28-55.36-41.47-137.18
								C2606.23,2382.54,2590.38,2354.59,2601.62,2344.71z"/>
							<g class="st43">
								
									<linearGradient id="SVGID_45_" gradientUnits="userSpaceOnUse" x1="17.6052" y1="2545.3274" x2="-206.2966" y2="2396.0596" gradientTransform="matrix(1 0 0 1 2671.7949 0)">
									<stop  offset="0" style="stop-color:#5E9A99"/>
									<stop  offset="1" style="stop-color:#4B8E8D"/>
								</linearGradient>
								<path class="st44" d="M2511.47,2586.3l-7.09-191.31c0.4-10,2.84-34.78,21.46-54.49c0.05-0.05,0.09-0.1,0.14-0.15
									c8.7-9.16,20.47-10.94,26.5-11.86c48.48-7.39,76.91,17.58,76.91,17.58c6.4,7.21,14.96,18.22,22.18,33.06
									c15.25,31.37,14.1,58.51,14.15,97.77c0.04,25.79,0.6,62.98,3.15,109.41C2616.4,2586.3,2563.94,2586.3,2511.47,2586.3z"/>
								<path class="st20" d="M2601.88,2344.8c3.52-0.67,7.32-1.81,9.87-5.04c0.79-1,1.4-2.13,1.84-3.32
									c-12.8-5.95-33.01-11.82-59.25-8.23c0,0.81,0.09,1.66,0.29,2.51C2557.77,2344.42,2585.88,2347.83,2601.88,2344.8z"/>
								<path class="st20" d="M2597.16,2586.3c-12.13-36.07-24.26-72.14-36.38-108.21c4.61-8.17,20.65-38.91,11.54-75.92
									c-6.31-25.63-23.05-47.59-45.99-62.18c-0.12,0.12-0.23,0.23-0.35,0.35c-0.05,0.05-0.09,0.1-0.14,0.15
									c-18.62,19.71-21.06,44.49-21.46,54.49l7.09,191.31C2540.04,2586.3,2568.6,2586.3,2597.16,2586.3z"/>
							</g>
							<linearGradient id="SVGID_46_" gradientUnits="userSpaceOnUse" x1="2489.291" y1="2465.8652" x2="2576.7393" y2="2465.8652">
								<stop  offset="0" style="stop-color:#4B5566"/>
								<stop  offset="1" style="stop-color:#2D334A"/>
							</linearGradient>
							<path class="st45" d="M2500.17,2369.59c7.12-14.99,22.79-39.28,36.37-37.01c17.38,2.91,22.73,47.89,24.25,60.62
								c4.28,35.94-2.23,66.03-8.29,85.5c8.08,38.71,16.16,77.42,24.25,116.13c-11.49,1.49-22.97,2.98-34.46,4.47
								c-20.41-38.68-31.74-72.75-38.28-96.99C2491.57,2456.29,2480.16,2411.71,2500.17,2369.59z"/>
							<g class="st43">
								<g>
									<g>
										<path class="st22" d="M2569.04,2305.95l-9.74,26.43c-0.6,1.61,0.64,3.29,2.8,3.79c5.35,1.25,12.49,2.41,20.96,2.47
											c8.34,0.06,15.3-0.95,20.3-1.99v-30.7H2569.04z"/>
										<path class="st23" d="M2603.35,2305.95h-34.31l-9.74,26.43c-0.6,1.61,0.64,3.29,2.8,3.79c0.82,0.19,1.69,0.38,2.59,0.56
											c1.85-4.03,4.07-9.83,6.74-17.97c3.81,1.38,9.89,3.02,17.43,2.73c5.65-0.22,10.54-1.47,14.49-2.97V2305.95z"/>
									</g>
									<g>
										<path class="st22" d="M2607.42,2248.65c3.02,3.36,4.09,7.62,6.11,15.99c4.64,19.28,8.11,33.69,0,43.11
											c-8.67,10.07-25.15,8.11-28.38,7.72c-2.2-0.26-16.71-2.22-26.41-14.55c-11-13.99-13.82-38.81,1.26-52.45
											C2573.86,2235.92,2597.53,2237.65,2607.42,2248.65z"/>
										<path class="st23" d="M2574.79,2267.94c4.92,1.35,13.35,2.95,23.52,1.26c5.83-0.97,10.89-2.79,15.14-4.89
											c-1.11-4.6-1.94-7.94-2.98-10.57c-4.08-0.05-8.49-0.08-13.21-0.07c-23.92,0.01-26.84,0.8-29.82,2.52
											c-9.45,5.45-15.23,17.8-16.03,30.15c1.57,5.43,4.1,10.48,7.33,14.59c2.97,3.78,6.39,6.58,9.77,8.66
											c-0.66-4.44-1.58-10.47-1.07-17.49C2568.18,2281.88,2571.67,2273.63,2574.79,2267.94z"/>
									</g>
									
										<linearGradient id="SVGID_47_" gradientUnits="userSpaceOnUse" x1="2654.9312" y1="2247.4658" x2="2598.9116" y2="2262.3384">
										<stop  offset="0" style="stop-color:#4B5566"/>
										<stop  offset="1" style="stop-color:#2D334A"/>
									</linearGradient>
									<path class="st46" d="M2563.47,2305.59c-1.68-3.72-3.49-9.07-3.77-15.63c-0.72-16.95,9.35-28.96,12.21-32.15
										c13.64,6.16,24.96,6.1,30.9,5.57c7.9-0.7,15.74-1.4,20.66-7.72c4.46-5.73,6.47-16.02,0.54-23.17
										c-6.57-7.92-18.94-7.25-25.51-1.98c-2.52,2.03-3.9,4.51-4.67,6.29c-2.74-0.95-16-5.24-29.1,1.62
										c-14.28,7.47-19.76,23.66-18.86,36.64C2547.15,2293.58,2561.35,2304.07,2563.47,2305.59z"/>
								</g>
								<g>
									
										<linearGradient id="SVGID_48_" gradientUnits="userSpaceOnUse" x1="3159.592" y1="2334.2964" x2="3208.1072" y2="2334.2964" gradientTransform="matrix(-1 0 0 1 5760 0)">
										<stop  offset="0" style="stop-color:#4B5566"/>
										<stop  offset="1" style="stop-color:#2D334A"/>
									</linearGradient>
									<path class="st47" d="M2600.41,2337.24c-3.5,3.08-7,6.16-10.5,9.24c-11.64,0.95-20.1-1.58-24.99-3.57
										c-5.69-2.31-12.79-5.19-13.02-10.08c-0.19-4.08,4.46-8.49,11.34-10.92c7.54,3.19,15.1,6.34,22.68,9.45
										C2590.74,2333.34,2595.57,2335.3,2600.41,2337.24z"/>
									
										<linearGradient id="SVGID_49_" gradientUnits="userSpaceOnUse" x1="3146.0579" y1="2333.3538" x2="3159.592" y2="2333.3538" gradientTransform="matrix(-1 0 0 1 5760 0)">
										<stop  offset="0" style="stop-color:#4B5566"/>
										<stop  offset="1" style="stop-color:#2D334A"/>
									</linearGradient>
									<path class="st48" d="M2603.35,2324.64c1.56,0.57,4.35,1.85,6.72,4.62c4.46,5.21,3.92,11.54,3.78,12.81
										c-4.48-1.61-8.96-3.22-13.44-4.83C2601.39,2333.04,2602.37,2328.84,2603.35,2324.64z"/>
								</g>
							</g>
						</g>
					</g>
					<g>
						<g>
							<linearGradient id="SVGID_50_" gradientUnits="userSpaceOnUse" x1="2881.6011" y1="2263.7437" x2="2971.885" y2="2263.7437">
								<stop  offset="0" style="stop-color:#5E9A99"/>
								<stop  offset="1" style="stop-color:#4B8E8D"/>
							</linearGradient>
							<path class="st49" d="M2925.4,2294.16l-23.44,12.32c-2.11,1.11-4.58-0.68-4.18-3.03l4.48-26.1c0.16-0.93-0.15-1.89-0.83-2.55
								l-18.96-18.48c-1.71-1.67-0.77-4.57,1.6-4.91l26.21-3.81c0.94-0.14,1.75-0.73,2.17-1.57l11.72-23.75
								c1.06-2.14,4.11-2.14,5.16,0l11.72,23.75c0.42,0.85,1.23,1.44,2.17,1.57l26.21,3.81c2.36,0.34,3.3,3.24,1.6,4.91
								l-18.96,18.48c-0.68,0.66-0.99,1.61-0.83,2.55l4.48,26.1c0.4,2.35-2.06,4.15-4.18,3.03l-23.44-12.32
								C2927.24,2293.72,2926.24,2293.72,2925.4,2294.16z"/>
							
								<linearGradient id="SVGID_51_" gradientUnits="userSpaceOnUse" x1="2980.0842" y1="2263.7437" x2="3070.3682" y2="2263.7437">
								<stop  offset="0" style="stop-color:#5E9A99"/>
								<stop  offset="1" style="stop-color:#4B8E8D"/>
							</linearGradient>
							<path class="st50" d="M3023.89,2294.16l-23.44,12.32c-2.11,1.11-4.58-0.68-4.18-3.03l4.48-26.1
								c0.16-0.93-0.15-1.89-0.83-2.55l-18.96-18.48c-1.71-1.67-0.77-4.57,1.6-4.91l26.21-3.81c0.94-0.14,1.75-0.73,2.17-1.57
								l11.72-23.75c1.06-2.14,4.11-2.14,5.16,0l11.72,23.75c0.42,0.85,1.23,1.44,2.17,1.57l26.21,3.81c2.36,0.34,3.3,3.24,1.6,4.91
								l-18.96,18.48c-0.68,0.66-0.99,1.61-0.83,2.55l4.48,26.1c0.4,2.35-2.06,4.15-4.18,3.03l-23.44-12.32
								C3025.73,2293.72,3024.73,2293.72,3023.89,2294.16z"/>
						</g>
						<g>
							<path class="st16" d="M3299.17,2375.63h-397.18c-11.26,0-20.39-9.13-20.39-20.39v-2.99c0-11.26,9.13-20.39,20.39-20.39
								h397.18c11.26,0,20.39,9.13,20.39,20.39v2.99C3319.56,2366.5,3310.43,2375.63,3299.17,2375.63z"/>
							<path class="st16" d="M3299.17,2470.21h-397.18c-11.26,0-20.39-9.13-20.39-20.39v-2.99c0-11.26,9.13-20.39,20.39-20.39
								h397.18c11.26,0,20.39,9.13,20.39,20.39v2.99C3319.56,2461.08,3310.43,2470.21,3299.17,2470.21z"/>
							<path class="st16" d="M3299.17,2564.79h-397.18c-11.26,0-20.39-9.13-20.39-20.39v-2.99c0-11.26,9.13-20.39,20.39-20.39
								h397.18c11.26,0,20.39,9.13,20.39,20.39v2.99C3319.56,2555.66,3310.43,2564.79,3299.17,2564.79z"/>
						</g>
					</g>
				</g>
			</g>
			<g>
				<path class="st51" d="M2279.23,2627.98c6.42,88.15,79.96,157.67,169.74,157.67h759.71c89.78,0,163.33-69.52,169.75-157.67
					H2279.23z"/>
				<g>
					<circle class="st52" cx="2828.83" cy="2712.77" r="47.22"/>
					<g>
						<path class="st16" d="M2566.43,2682.3h-64.39c-6.49,0-11.81-5.31-11.81-11.81l0,0c0-6.49,5.31-11.81,11.81-11.81h64.39
							c6.49,0,11.81,5.31,11.81,11.81l0,0C2578.24,2676.98,2572.93,2682.3,2566.43,2682.3z"/>
						<path class="st16" d="M2566.43,2720.39h-64.39c-6.49,0-11.81-5.31-11.81-11.8l0,0c0-6.49,5.31-11.81,11.81-11.81h64.39
							c6.49,0,11.81,5.31,11.81,11.81l0,0C2578.24,2715.08,2572.93,2720.39,2566.43,2720.39z"/>
						<path class="st16" d="M2566.43,2758.49h-64.39c-6.49,0-11.81-5.31-11.81-11.8v0c0-6.49,5.31-11.8,11.81-11.8h64.39
							c6.49,0,11.81,5.31,11.81,11.8v0C2578.24,2753.18,2572.93,2758.49,2566.43,2758.49z"/>
					</g>
					<polygon class="st16" points="3167.42,2701.61 3167.42,2655.14 3127.18,2678.38 3086.93,2701.61 3127.18,2724.85 
						3167.42,2748.08 					"/>
				</g>
			</g>
			<g>
				<linearGradient id="SVGID_52_" gradientUnits="userSpaceOnUse" x1="1864.4589" y1="2287.7556" x2="3311.6833" y2="439.7613">
					<stop  offset="0" style="stop-color:#FFF6ED"/>
					<stop  offset="0.4147" style="stop-color:#FFEFE0"/>
					<stop  offset="1" style="stop-color:#FFE7D1"/>
				</linearGradient>
				<path class="st53" d="M2278.77,1833.44c319.31-330.62,638.62-661.23,957.93-991.85c-9.11-1.51-18.47-2.31-28.01-2.31h-75.11
					c-284.94,204.45-569.87,408.91-854.81,613.36V1833.44z"/>
				<linearGradient id="SVGID_53_" gradientUnits="userSpaceOnUse" x1="2188.2058" y1="2541.2922" x2="3635.4302" y2="693.2981">
					<stop  offset="0" style="stop-color:#FFF6ED"/>
					<stop  offset="0.4147" style="stop-color:#FFEFE0"/>
					<stop  offset="1" style="stop-color:#FFE7D1"/>
				</linearGradient>
				<path class="st54" d="M3378.89,1058.41c-366.71,367.73-733.42,735.46-1100.12,1103.19v453.84c0,21.21,3.89,41.51,10.98,60.23
					c363.05-526.58,726.1-1053.15,1089.14-1579.73V1058.41z"/>
				<linearGradient id="SVGID_54_" gradientUnits="userSpaceOnUse" x1="2695.2224" y1="2938.3535" x2="4142.4468" y2="1090.3593">
					<stop  offset="0" style="stop-color:#FFF6ED"/>
					<stop  offset="0.4147" style="stop-color:#FFEFE0"/>
					<stop  offset="1" style="stop-color:#FFE7D1"/>
				</linearGradient>
				<path class="st55" d="M3109.5,2785.65c89.8-284.99,179.59-569.98,269.39-854.97v-241.62
					c-192.92,365.53-385.85,731.06-578.77,1096.59H3109.5z"/>
			</g>
		</g>
		<g>
			<g>
				<g>
					<polygon class="st22" points="3515.61,2779.32 3496.76,2866.42 3533.95,2866.42 3562.98,2779.32 					"/>
					<g>
						<linearGradient id="SVGID_55_" gradientUnits="userSpaceOnUse" x1="3353.564" y1="2440.6758" x2="3666.7676" y2="2506.0916">
							<stop  offset="0" style="stop-color:#4B5566"/>
							<stop  offset="1" style="stop-color:#2D334A"/>
						</linearGradient>
						<path class="st56" d="M3570.18,2157.21l-35.08,329.78l-49.12,331.06c3.26,3.04,18.49,16.58,42.1,16.58s38.84-13.54,42.1-16.58
							l144.16-660.84H3570.18z"/>
						<path class="st57" d="M3651.09,2242.99c-29.05,164.83-58.1,329.65-87.15,494.48c-5.93,33.64-29.81,61.32-62.21,72.12
							c-5.08,1.69-10.17,3.39-15.25,5.08l-0.5,3.38c3.26,3.04,18.49,16.58,42.1,16.58s38.84-13.54,42.1-16.58l101.39-464.79
							C3664.77,2308.39,3656.98,2269.97,3651.09,2242.99z"/>
					</g>
					<linearGradient id="SVGID_56_" gradientUnits="userSpaceOnUse" x1="3407.4341" y1="2876.6077" x2="3544.6426" y2="2876.6077">
						<stop  offset="0" style="stop-color:#4B5566"/>
						<stop  offset="1" style="stop-color:#2D334A"/>
					</linearGradient>
					<path class="st58" d="M3499.31,2855.22c-14.09,5.6-28.18,11.21-42.28,16.81c-10.53-1.87-21.05-3.74-31.58-5.6
						c-8.81-0.58-16.52,5.59-17.83,13.75c-1.17,7.29,2.99,14.76,10.19,17.83h104.92h21.9l-7.13-42.78H3499.31z"/>
				</g>
				<g>
					<polygon class="st22" points="3731.06,2802.75 3737.68,2866.42 3760.09,2873.04 3776.9,2866.42 3769.77,2802.75 
						3747.36,2797.15 					"/>
					<g>
						<linearGradient id="SVGID_57_" gradientUnits="userSpaceOnUse" x1="3353.5291" y1="2440.843" x2="3666.7327" y2="2506.2588">
							<stop  offset="0" style="stop-color:#4B5566"/>
							<stop  offset="1" style="stop-color:#2D334A"/>
						</linearGradient>
						<path class="st59" d="M3651.09,2242.99c-5.6,5.6,63.16,574.54,63.16,574.54c1.93,2.05,18.94,19.6,44.31,16.81
							c19.75-2.17,31.47-15.22,34.13-18.34l-10.19-596.95L3651.09,2242.99z"/>
						<path class="st57" d="M3747.19,2225.48c14.56,197.51,29.12,395.02,43.68,592.53c0.81-0.85,1.42-1.55,1.82-2.01l-9.65-565.34
							c-4.68-10.57-9.13-20.37-13.26-29.29L3747.19,2225.48z"/>
					</g>
					<linearGradient id="SVGID_58_" gradientUnits="userSpaceOnUse" x1="3740.4871" y1="2854.4678" x2="3751.8853" y2="2883.7068">
						<stop  offset="0" style="stop-color:#4B5566"/>
						<stop  offset="1" style="stop-color:#2D334A"/>
					</linearGradient>
					<polygon class="st60" points="3736.16,2852.67 3721.89,2898 3788.11,2898 3775.37,2852.71 					"/>
				</g>
			</g>
			<g>
				<g>
					<path class="st22" d="M3367.85,1735.73l-11.35-28.53c-0.55-1.38-1.31-2.66-2.26-3.8l-3.36-4.03l-6.67-24.09
						c-0.42-1.52-2-2.39-3.51-1.94c-1.34,0.4-2.18,1.73-1.97,3.12c0.4,2.57,1.06,6.76,1.62,10.46c-2.28-2.11-5.21-3.43-8.34-3.69
						l-17.33-1.49c-7.11-0.61-13.55,4.22-14.95,11.22l-0.98,4.89c-1.02,5.09,0.86,10.34,4.89,13.62l24.18,19.72
						c1.57,1.28,2.84,2.88,3.73,4.7l6.15,12.54c3.02,6.16,10.05,9.23,16.62,7.26l4.51-1.35
						C3366.73,1751.98,3370.89,1743.37,3367.85,1735.73z"/>
					<path class="st23" d="M3327.83,1731.2c1.57,1.28,2.84,2.88,3.73,4.7l6.15,12.54c3.02,6.16,10.05,9.23,16.62,7.26l4.51-1.35
						c7.88-2.36,12.04-10.97,9-18.62l-4.44-11.15l-1.62,0.83c-6.65,3.39-14.03,5.09-21.49,4.96c-4.17-0.07-9.02-0.15-13.72-0.19
						L3327.83,1731.2z"/>
				</g>
				<g>
					<linearGradient id="SVGID_59_" gradientUnits="userSpaceOnUse" x1="3496.3301" y1="1767.0089" x2="3478.4895" y2="1923.6107">
						<stop  offset="0" style="stop-color:#4B5566"/>
						<stop  offset="1" style="stop-color:#2D334A"/>
					</linearGradient>
					<path class="st61" d="M3592.82,1899.78c-34.08,0.21-68.16,0.42-102.25,0.63c-16.8-24.18-33.55-48.4-50.25-72.66
						c-22.31-32.4-44.53-64.86-66.66-97.38c-6.45,2.63-12.95,5.24-19.51,7.85c-7.1,2.83-14.17,5.6-21.19,8.33
						c11.12,28.64,24.76,70.1,47.98,117.96c45.89,94.57,73.12,111.48,83.92,117.37c17.88,9.76,35.47,13.73,69.94,21.53
						c33.29,7.53,61.59,10.61,81.5,12c7.57-15.43,15.14-30.86,22.71-46.3L3592.82,1899.78z"/>
					<path class="st57" d="M3592.82,1899.78c-17.01,0.1-34.02,0.21-51.04,0.31c-27.99,30-31.63,57.89-52.15,61.23
						c-16.99,2.76-32-13.52-55.52-39.73c-23.05-25.69-41.23-46-55.58-62.05c0.81,1.69,1.61,3.35,2.39,4.97
						c45.89,94.57,73.12,111.48,83.92,117.37c17.88,9.76,35.47,13.73,69.94,21.53c22.61,5.11,42.91,8.17,59.85,10.05
						c8.63-12.31,14.07-22.91,15.7-26.16c6.27-12.55,10.97-26.32,14.11-40.03L3592.82,1899.78z"/>
				</g>
			</g>
			<g>
				<linearGradient id="SVGID_60_" gradientUnits="userSpaceOnUse" x1="3457.5525" y1="2201.5947" x2="3752.9155" y2="2050.9397">
					<stop  offset="0" style="stop-color:#5E9A99"/>
					<stop  offset="1" style="stop-color:#4B8E8D"/>
				</linearGradient>
				<path class="st62" d="M3652.41,1875.22c-13.25,1.38-25.2,4.27-35.83,7.99c0,0-8.71,3.05-15.67,6.45
					c-8.27,4.05-15.81,10.94-22.38,18.78c-17.65,21.05-27.28,47.68-27.77,75.15c-1.7,94.79-3.39,189.57-5.09,284.36
					c21.06,11.21,56.25,26.4,102.08,30.34c68.91,5.93,121.84-17.02,144.95-28.81c0.05-155.71-12.5-273.78-30.05-325.47
					c-5.02-14.77-17.64-51.95-45.73-62.33C3709.85,1879.06,3694.72,1870.8,3652.41,1875.22z"/>
				<path class="st20" d="M3792.69,2269.47c0.05-155.71-12.5-273.78-30.05-325.47c-5.02-14.77-17.64-51.95-45.73-62.33
					c-3.3-1.22-8.37-3.68-17.15-5.49c20.05,45.71,39.75,101.21,53.71,165.62c19.62,90.53,22.09,171.82,18.21,237.3
					C3780.21,2275.62,3787.27,2272.24,3792.69,2269.47z"/>
			</g>
			<g>
				<g>
					<path class="st22" d="M4167.43,1880.6l-4.4-5.18c-3.05-3.59-8-4.93-12.44-3.35l-18.9,6.72l4.15-7.48
						c0.53-0.96,0.19-2.17-0.78-2.7c-0.81-0.45-1.82-0.28-2.44,0.4l-14.21,15.67l-22.34,20.04c-2.4,2.15-3.77,5.22-3.77,8.44
						c0,7.73,7.58,13.2,14.92,10.75l44.89-14.96c1.67-0.56,3.19-1.49,4.43-2.74l10.26-10.26
						C4170.97,1891.78,4171.24,1885.1,4167.43,1880.6z"/>
					<path class="st23" d="M4107.22,1923.91l28.78-9.59c-7.6-0.69-15.61-2.58-23.44-6.47c-4.53-2.25-8.34-4.84-11.61-7.5l-4.88,4.38
						c-2.4,2.15-3.77,5.22-3.77,8.44C4092.3,1920.89,4099.88,1926.35,4107.22,1923.91z"/>
				</g>
				<g>
					<linearGradient id="SVGID_61_" gradientUnits="userSpaceOnUse" x1="3986.1345" y1="1801.6372" x2="3898.9131" y2="1952.2922">
						<stop  offset="0" style="stop-color:#4B5566"/>
						<stop  offset="1" style="stop-color:#2D334A"/>
					</linearGradient>
					<path class="st63" d="M3740.5,1899.61l166.79,54.07l190.49-53.99l11.71,27c-17.91,20.56-48.85,50.8-95.25,74.36
						c-34.31,17.42-65.92,25.53-89.13,29.54c-23.16,1.36-51.56,1.07-83.53-3.57c-41.36-6-75.47-17.36-100.85-28.01
						c-18.31-12.76-28.52-33.99-26.49-55.52C3716.81,1916.45,3737.47,1901.7,3740.5,1899.61z"/>
					<path class="st57" d="M3909.33,2021.93c-59.04,1.74-109.14-15.23-145.67-32.6c-3.71-3.97-18.74-20.98-18.85-46.86
						c-0.06-15.8,5.47-28.53,11.52-37.73l-15.83-5.13c-3.03,2.09-23.69,16.84-26.25,43.88c-2.03,21.53,8.17,42.76,26.49,55.52
						c25.37,10.65,59.48,22.02,100.85,28.01c31.97,4.64,60.37,4.92,83.53,3.57c23.22-4.01,54.83-12.12,89.13-29.54
						c5.6-2.85,10.97-5.79,16.13-8.8C3999.08,2006.75,3957.97,2020.5,3909.33,2021.93z"/>
				</g>
			</g>
			<g>
				<g>
					<g>
						<path class="st22" d="M3680.34,1848.25l13.91,37.74c0.85,2.31-0.91,4.7-3.99,5.42c-7.64,1.78-17.84,3.44-29.93,3.53
							c-11.91,0.09-21.84-1.36-28.99-2.85v-43.84H3680.34z"/>
						<path class="st23" d="M3631.35,1848.25h49l13.91,37.74c0.85,2.31-0.91,4.7-3.99,5.42c-1.17,0.27-2.41,0.54-3.7,0.8
							c-2.64-5.76-5.81-14.03-9.63-25.67c-5.43,1.97-14.12,4.32-24.89,3.9c-8.07-0.31-15.05-2.1-20.69-4.24V1848.25z"/>
					</g>
					<g>
						<linearGradient id="SVGID_62_" gradientUnits="userSpaceOnUse" x1="3581.002" y1="1710.4259" x2="3718.9375" y2="1892.064">
							<stop  offset="0.3492" style="stop-color:#FED9C6"/>
							<stop  offset="1" style="stop-color:#FEC3A5"/>
						</linearGradient>
						<path class="st64" d="M3625.53,1766.41c-4.32,4.8-5.84,10.88-8.72,22.83c-6.63,27.54-11.58,48.12,0,61.57
							c12.39,14.38,35.92,11.58,40.53,11.03c3.15-0.37,23.86-3.17,37.71-20.78c15.71-19.98,19.74-55.42-1.8-74.91
							C3673.45,1748.24,3639.66,1750.71,3625.53,1766.41z"/>
						<path class="st23" d="M3672.13,1793.97c-7.03,1.93-19.06,4.21-33.59,1.8c-8.33-1.38-15.55-3.99-21.62-6.99
							c1.58-6.57,2.77-11.34,4.26-15.1c5.82-0.07,12.13-0.11,18.86-0.11c34.16,0.01,38.33,1.14,42.59,3.6
							c13.5,7.79,21.75,25.42,22.9,43.06c-2.25,7.75-5.85,14.96-10.47,20.84c-4.24,5.39-9.12,9.39-13.95,12.36
							c0.94-6.34,2.26-14.95,1.52-24.97C3681.56,1813.87,3676.58,1802.1,3672.13,1793.97z"/>
					</g>
					
						<linearGradient id="SVGID_63_" gradientUnits="userSpaceOnUse" x1="4444.7881" y1="1789.0153" x2="4571.5903" y2="1789.0153" gradientTransform="matrix(1 0 0 1 -848.2062 0)">
						<stop  offset="0" style="stop-color:#4B5566"/>
						<stop  offset="1" style="stop-color:#2D334A"/>
					</linearGradient>
					<path class="st65" d="M3718.2,1786.41c1.91-3.73,3.03-8.24,3.03-13.12c0-12.75-7.67-23.09-17.12-23.09
						c-1.82,0-3.56,0.38-5.21,1.09c0.02-0.36,0.03-0.72,0.03-1.09c0-10.99-8.91-19.91-19.91-19.91c-4.48,0-8.62,1.48-11.94,3.98
						c-3.33-2.5-7.46-3.98-11.94-3.98c-7.36,0-13.78,4-17.23,9.94c-9.46-7.28-26.8-8.08-36.07,3.09
						c-8.47,10.22-5.6,24.91,0.77,33.09c7.03,9.04,18.23,10.03,29.5,11.03c8.48,0.75,24.64,0.84,44.13-7.95
						c4.09,4.56,18.47,21.71,17.44,45.92c-0.4,9.37-2.98,17.01-5.39,22.32c2.23-1.59,13.78-10.13,20.47-25.07
						c4.74-1.76,9.52-6.77,12.33-13.62C3725.06,1799.4,3723.72,1789.61,3718.2,1786.41z"/>
				</g>
				<g>
					<linearGradient id="SVGID_64_" gradientUnits="userSpaceOnUse" x1="3650.8848" y1="1908.5542" x2="3691.3435" y2="1887.9175">
						<stop  offset="0" style="stop-color:#4B5566"/>
						<stop  offset="1" style="stop-color:#2D334A"/>
					</linearGradient>
					<path class="st66" d="M3651.26,1894.72c2.1,3.32,5.72,7.71,11.47,10.26c11.18,4.96,25.87,0.93,36.82-10.26
						c0.28-1.46,1.29-7.5-2.41-13.28c-2.26-3.53-5.25-5.35-6.82-6.17C3677.29,1881.76,3664.28,1888.24,3651.26,1894.72z"/>
					<linearGradient id="SVGID_65_" gradientUnits="userSpaceOnUse" x1="3618.8413" y1="1900.7155" x2="3642.6221" y2="1888.5858">
						<stop  offset="0" style="stop-color:#4B5566"/>
						<stop  offset="1" style="stop-color:#2D334A"/>
					</linearGradient>
					<path class="st67" d="M3631.35,1878.52c-0.64-0.02-5.18-0.12-8.45,3.52c-3.84,4.28-2.4,9.79-2.3,10.17
						c0.19,8.02,6.49,14.62,14.37,15.18c7.68,0.55,14.73-4.79,16.3-12.45L3631.35,1878.52z"/>
				</g>
			</g>
		</g>
		<g>
			<g>
				<g>
					<path class="st22" d="M2141.7,2044.28c13.27,2.13,22.47-0.13,28.55-2.73c10.11-4.34,16.78-11.89,33.31-16.84
						c2.44-0.73,8.07-2.39,8.63-1.24c0.75,1.55-13.75,8.25-12.94,10.38c0.37,0.98,3.78,0.52,5.74,0.26
						c8.14-1.09,10.32-4.08,15.17-4.42c4.75-0.33,10.95,1.99,12.75,5.89c3.16,6.81-6.63,19.36-17.34,26.02
						c-8.88,5.52-16.4,5.75-42,7.55c-15.52,1.09-27.86,2.07-35.05,2.66c-0.5-0.58-6.97-8.28-4.2-17.66
						C2136.02,2048.38,2140.26,2045.25,2141.7,2044.28z"/>
					<path class="st23" d="M2185.66,2065.46c-7.41,0.01-14.5-0.22-21.24-0.63c-2.46-3.31-5.07-7.96-3.69-12.1
						c1.45-4.34,6.42-5.56,11.01-8.29c3.01-1.79,6.42-4.59,9.63-9.14c-3.72,2.34-7.16,4.54-11.13,6.25
						c-6.07,2.61-15.27,4.86-28.55,2.73c-1.44,0.97-5.68,4.1-7.39,9.87c-2.77,9.37,3.69,17.08,4.2,17.66
						c7.19-0.58,19.54-1.56,35.05-2.66c19.9-1.4,28.88-1.85,36.06-4.58C2202.04,2065.12,2194.05,2065.45,2185.66,2065.46z"/>
				</g>
				
					<linearGradient id="SVGID_66_" gradientUnits="userSpaceOnUse" x1="5740.8506" y1="1576.3712" x2="5776.6782" y2="1635.7426" gradientTransform="matrix(-0.9837 0.1798 0.1798 0.9837 7348.0381 -632.137)">
					<stop  offset="0" style="stop-color:#4B5566"/>
					<stop  offset="1" style="stop-color:#2D334A"/>
				</linearGradient>
				<path class="st68" d="M1795.71,1892.13c13.78-4.59,31.33,2.6,43.23,18.11c31.08,43.17,62.16,86.33,93.23,129.5l225.05,1.65
					l0.57,33.12c-34.7,12.08-78.71,24.16-130.5,31.02c-41.16,5.45-78.37,6.44-110.15,5.31c-12.5-0.44-24.78-3.56-35.92-9.25
					c-21.57-11.03-37.55-23.2-48.34-32.57c-16.28-14.14-38.94-33.82-52.61-67.79c-4.65-11.55-14.73-37.56-8.2-68.61
					C1774.33,1921.95,1779.44,1897.55,1795.71,1892.13z"/>
				<path class="st69" d="M1772.09,1932.63c2.25-10.67,7.36-35.08,23.63-40.49c10.56-3.51,23.33-0.11,34.08,8.65
					c11.83,33.01,23.66,66.02,35.49,99.03c7.96,11.21,17.01,23.01,27.27,35.12c9.19,10.84,18.28,20.67,27.06,29.55
					c38.78,1.24,77.55,2.71,116.31,4.41c40.21,1.77,80.4,3.79,120.58,6.06c-34.5,11.93-78.06,23.8-129.21,30.58
					c-41.16,5.45-78.37,6.44-110.15,5.31c-12.5-0.44-24.78-3.56-35.92-9.25c-21.57-11.03-37.55-23.2-48.34-32.57
					c-16.28-14.14-38.93-33.82-52.61-67.79C1775.64,1989.69,1765.55,1963.67,1772.09,1932.63z"/>
			</g>
			<g>
				<g>
					<g>
						<polygon class="st22" points="2062.51,2801.12 2083.31,2870.66 2053.3,2870.66 2026.25,2802.01 						"/>
						<linearGradient id="SVGID_67_" gradientUnits="userSpaceOnUse" x1="2039.8922" y1="2877.1152" x2="2157.9077" y2="2877.1152">
							<stop  offset="0" style="stop-color:#4B5566"/>
							<stop  offset="1" style="stop-color:#2D334A"/>
						</linearGradient>
						<path class="st70" d="M2052.92,2868.24c-2.82,2.32-8.48,7.64-11.34,16.19c-1.86,5.57-1.84,10.45-1.55,13.57
							c6.53,0,13.05,0,19.58,0h80.9c11.29-3.31,18.4-13.18,17.26-23.09c-1.17-10.16-10.67-17.56-19.07-18.57
							c-5.1-0.61-8.71,1.26-27.05,10l0,0l0,0C2111.67,2866.34,2052.92,2868.24,2052.92,2868.24z"/>
					</g>
					<g>
						
							<linearGradient id="SVGID_68_" gradientUnits="userSpaceOnUse" x1="-4951.5303" y1="2555.6221" x2="-5059.5518" y2="2529.2168" gradientTransform="matrix(1 0 0 1 7059.1392 0)">
							<stop  offset="0" style="stop-color:#4B5566"/>
							<stop  offset="1" style="stop-color:#2D334A"/>
						</linearGradient>
						<path class="st71" d="M1922.8,2207.34l157.24,633.9h-43.98c-28.26-50.06-57.83-111.12-83.21-182.77
							c-18.9-53.35-32.18-103.26-41.61-148c-26.14-26.22-61.2-67.3-90.34-124.82c-31.07-61.3-43.27-117.29-48.48-155.11
							L1922.8,2207.34z"/>
						<path class="st69" d="M1943.04,2555.94c-2.09-20.69-3.11-40.73-3.27-60.03c-20.04-33.12-42.56-82.49-40.42-141.76
							c2.39-66.05,33.8-99.33,17.53-121.25c-8.18-11.03-26.48-16.55-48.96-17.09l-66.6,10.27c-9.6,3.05-19.03,6.76-27.96,11.09
							c5.7,37.58,18.22,90.67,47.52,148.49c29.15,57.51,64.21,98.6,90.34,124.82c9.43,44.74,22.71,94.65,41.61,148
							c25.38,71.65,54.96,132.71,83.21,182.77h3.83C1996.14,2768,1954.77,2671.82,1943.04,2555.94z"/>
					</g>
				</g>
				<g>
					<g>
						<polygon class="st22" points="1726.74,2806.86 1710.78,2870.54 1680.76,2870.62 1690.97,2804.39 						"/>
						<linearGradient id="SVGID_69_" gradientUnits="userSpaceOnUse" x1="1667.4203" y1="2876.9854" x2="1785.3876" y2="2876.9854">
							<stop  offset="0" style="stop-color:#4B5566"/>
							<stop  offset="1" style="stop-color:#2D334A"/>
						</linearGradient>
						<path class="st72" d="M1680.38,2868.21c-2.81,2.33-8.46,7.66-11.29,16.22c-1.85,5.58-1.81,10.45-1.51,13.57
							c6.53-0.02,13.05-0.03,19.58-0.05l80.9-0.22c11.29-3.34,18.37-13.23,17.2-23.14c-1.2-10.16-10.72-17.53-19.12-18.52
							c-5.1-0.6-8.71,1.28-27.03,10.07l0,0l0,0C1739.12,2866.14,1680.38,2868.21,1680.38,2868.21z"/>
					</g>
					<g>
						
							<linearGradient id="SVGID_70_" gradientUnits="userSpaceOnUse" x1="-5376.8037" y1="2502.6204" x2="-5133.2593" y2="2502.6204" gradientTransform="matrix(1 0 0 1 7059.1392 0)">
							<stop  offset="0" style="stop-color:#4B5566"/>
							<stop  offset="1" style="stop-color:#2D334A"/>
						</linearGradient>
						<path class="st73" d="M1925.88,2231.06l-202.84,604.17h-40.71c2.99-57.41,10.03-133.17,27.02-207.26
							c12.65-55.16,28.2-104.41,44.23-147.23c-8-36.15-15.57-89.62-9.33-153.8c6.64-68.41,26.37-122.21,42.25-156.93
							L1925.88,2231.06z"/>
					</g>
				</g>
			</g>
			<g>
				
					<linearGradient id="SVGID_71_" gradientUnits="userSpaceOnUse" x1="-5075.4067" y1="2190.9712" x2="-5392.27" y2="1979.729" gradientTransform="matrix(1 0 0 1 7059.1392 0)">
					<stop  offset="0" style="stop-color:#5E9A99"/>
					<stop  offset="1" style="stop-color:#4B8E8D"/>
				</linearGradient>
				<path class="st74" d="M1731.93,2248.95l-10.04-270.75c0.56-14.16,4.02-49.22,30.37-77.12c0.07-0.07,0.13-0.14,0.2-0.21
					c12.32-12.96,28.97-15.48,37.51-16.78c68.61-10.46,108.84,24.87,108.84,24.87c9.05,10.21,21.17,25.78,31.39,46.79
					c21.59,44.4,19.95,82.81,20.03,138.36c0.05,36.5,0.85,89.13,4.46,154.83c-30.61,6.99-70.73,13.13-117.8,12.52
					C1795.6,2260.94,1760.03,2255.37,1731.93,2248.95z"/>
				<path class="st20" d="M1859.87,1907.19c4.98-0.94,10.36-2.56,13.97-7.13c1.12-1.42,1.98-3.01,2.61-4.69
					c-18.11-8.42-46.71-16.72-83.85-11.64c0.01,1.15,0.13,2.34,0.41,3.56C1797.46,1906.65,1837.23,1911.48,1859.87,1907.19z"/>
				<path class="st20" d="M1721.9,1978.22l0-0.01c0.56-14.16,4.02-49.22,30.37-77.12c0.03-0.04,0.07-0.07,0.1-0.11
					c0.03-0.03,0.06-0.07,0.09-0.1c0,0,0,0,0,0c0.58-0.61,1.17-1.19,1.77-1.75c0.1-0.09,0.2-0.19,0.29-0.28
					c0.6-0.55,1.2-1.09,1.81-1.6c0.06-0.05,0.11-0.09,0.17-0.14c1.32-1.09,2.66-2.09,4.02-2.99h0c10.66,9.6,21.62,20.78,32.32,33.74
					c39.78,48.19,57.68,99.04,66.28,134.93c30.4,17.67,60.8,35.34,91.2,53.02c0.01,0.68,0.01,1.38,0.02,2.07
					c0,0.45,0.01,0.89,0.01,1.34c0.01,0.69,0.01,1.37,0.02,2.07c0.01,0.49,0.01,0.99,0.02,1.48c0.01,1.24,0.03,2.49,0.05,3.76
					c0.01,0.46,0.01,0.91,0.02,1.37c0.01,0.76,0.02,1.52,0.03,2.28c0.01,0.41,0.01,0.83,0.02,1.24c0.01,0.83,0.03,1.66,0.04,2.5
					c0,0.15,0.01,0.3,0.01,0.45c0.03,1.84,0.06,3.71,0.1,5.6c0,0.19,0.01,0.39,0.01,0.58c0.02,0.96,0.04,1.93,0.05,2.9
					c0,0.21,0.01,0.43,0.01,0.64c0.06,3.17,0.13,6.41,0.21,9.7c0,0.03,0,0.05,0,0.08c0.1,4.56,0.22,9.24,0.36,14.03
					c0,0.03,0,0.06,0,0.1c-28.75,2.04-68.39,1.08-112.7-12.1c-16.86-5.02-31.84-11.04-44.88-17.26
					c-13.18-6.61-26.37-13.22-39.55-19.83c-1.56,25.93-10.47,96.83-13.55,132.04c-2.97-0.62-5.88-1.26-8.7-1.9L1721.9,1978.22z"/>
			</g>
			<g>
				<g>
					<path class="st22" d="M1813.4,1852.21l-13.79,37.4c-0.84,2.29,0.9,4.65,3.96,5.37c7.57,1.76,17.68,3.41,29.66,3.5
						c11.8,0.09,21.65-1.35,28.73-2.82v-43.45H1813.4z"/>
					<path class="st23" d="M1861.95,1852.21h-48.55l-13.79,37.4c-0.84,2.29,0.9,4.65,3.96,5.37c1.16,0.27,2.39,0.54,3.67,0.8
						c2.62-5.71,5.76-13.91,9.54-25.43c5.38,1.95,14,4.28,24.67,3.86c8-0.31,14.91-2.08,20.51-4.21V1852.21z"/>
				</g>
				<g>
					<path class="st22" d="M1867.71,1771.11c4.28,4.76,5.79,10.78,8.64,22.62c6.57,27.29,11.48,47.68,0,61.01
						c-12.27,14.25-35.59,11.48-40.17,10.93c-3.12-0.37-23.65-3.14-37.37-20.59c-15.57-19.8-19.56-54.92,1.78-74.23
						C1820.23,1753.1,1853.72,1755.55,1867.71,1771.11z"/>
					<path class="st23" d="M1821.53,1798.42c6.96,1.91,18.89,4.17,33.28,1.78c8.25-1.37,15.41-3.95,21.42-6.92
						c-1.57-6.51-2.74-11.24-4.22-14.96c-5.77-0.07-12.02-0.11-18.69-0.11c-33.85,0.01-37.98,1.13-42.2,3.57
						c-13.38,7.72-21.55,25.19-22.69,42.67c2.23,7.68,5.8,14.83,10.38,20.65c4.2,5.34,9.04,9.31,13.82,12.25
						c-0.93-6.29-2.24-14.81-1.51-24.75C1812.19,1818.14,1817.13,1806.47,1821.53,1798.42z"/>
				</g>
				
					<linearGradient id="SVGID_72_" gradientUnits="userSpaceOnUse" x1="5831.7041" y1="1793.5104" x2="5957.355" y2="1793.5104" gradientTransform="matrix(-1 0 0 1 7728.104 0)">
					<stop  offset="0" style="stop-color:#4B5566"/>
					<stop  offset="1" style="stop-color:#2D334A"/>
				</linearGradient>
				<path class="st75" d="M1775.89,1790.93c-1.89-3.69-3-8.17-3-13c0-12.64,7.6-22.88,16.96-22.88c1.8,0,3.53,0.38,5.16,1.08
					c-0.02-0.36-0.03-0.72-0.03-1.08c0-10.89,8.83-19.73,19.73-19.73c4.44,0,8.54,1.47,11.84,3.95c3.3-2.48,7.39-3.95,11.84-3.95
					c7.29,0,13.66,3.96,17.07,9.84c9.37-7.22,26.56-8.01,35.74,3.07c8.4,10.13,5.55,24.68-0.76,32.79
					c-6.97,8.96-18.06,9.94-29.23,10.93c-8.41,0.75-24.41,0.83-43.72-7.88c-4.06,4.52-18.3,21.51-17.29,45.5
					c0.39,9.28,2.95,16.85,5.34,22.12c-2.21-1.58-13.66-10.04-20.29-24.84c-4.7-1.74-9.43-6.71-12.22-13.5
					C1769.08,1803.8,1770.42,1794.1,1775.89,1790.93z"/>
			</g>
			<g>
				
					<linearGradient id="SVGID_73_" gradientUnits="userSpaceOnUse" x1="5870.3125" y1="1892.3228" x2="5938.9707" y2="1892.3228" gradientTransform="matrix(-1 0 0 1 7728.104 0)">
					<stop  offset="0" style="stop-color:#4B5566"/>
					<stop  offset="1" style="stop-color:#2D334A"/>
				</linearGradient>
				<path class="st76" d="M1857.79,1896.49c-4.95,4.36-9.91,8.72-14.86,13.08c-16.47,1.34-28.45-2.24-35.37-5.05
					c-8.05-3.27-18.1-7.35-18.43-14.26c-0.27-5.78,6.31-12.01,16.05-15.45c10.67,4.52,21.37,8.98,32.1,13.37
					C1844.11,1890.96,1850.95,1893.74,1857.79,1896.49z"/>
				
					<linearGradient id="SVGID_74_" gradientUnits="userSpaceOnUse" x1="5851.1592" y1="1890.9886" x2="5870.3125" y2="1890.9886" gradientTransform="matrix(-1 0 0 1 7728.104 0)">
					<stop  offset="0" style="stop-color:#4B5566"/>
					<stop  offset="1" style="stop-color:#2D334A"/>
				</linearGradient>
				<path class="st77" d="M1861.95,1878.66c2.21,0.81,6.15,2.63,9.51,6.54c6.32,7.37,5.54,16.33,5.35,18.13
					c-6.34-2.28-12.68-4.56-19.02-6.84C1859.18,1890.54,1860.57,1884.6,1861.95,1878.66z"/>
			</g>
			<g>
				
					<linearGradient id="SVGID_75_" gradientUnits="userSpaceOnUse" x1="2076.3677" y1="1234.5471" x2="2658.6321" y2="1234.5471" gradientTransform="matrix(0.7472 0.6646 -0.6646 0.7472 1524.7816 -793.2293)">
					<stop  offset="0" style="stop-color:#FCFFFE"/>
					<stop  offset="1" style="stop-color:#F6FFFB"/>
				</linearGradient>
				<circle class="st78" cx="2473.3" cy="1702.66" r="291.13"/>
				<g>
					<path class="st79" d="M2357.32,1833.05L2357.32,1833.05c15.5,13.78,16.9,37.74,3.11,53.23l-50.84,57.16
						c119.12,81.2,282.87,63.3,381.23-47.29c106.86-120.14,96.09-304.16-24.05-411.02c-120.14-106.86-304.16-96.09-411.02,24.05
						c-98.37,110.59-97.05,275.31-2.51,384.15l50.84-57.16C2317.87,1820.67,2341.83,1819.27,2357.32,1833.05z"/>
					
						<linearGradient id="SVGID_76_" gradientUnits="userSpaceOnUse" x1="1856.5199" y1="2227.9651" x2="2542.4958" y2="2524.8801" gradientTransform="matrix(0.9709 0.2397 -0.2397 0.9709 480.2137 -523.1365)">
						<stop  offset="0" style="stop-color:#5D7C75"/>
						<stop  offset="1" style="stop-color:#496E6A"/>
					</linearGradient>
					<path class="st80" d="M2209.83,1942.14l-496.69,558.42c-13.78,15.5-12.38,39.45,3.11,53.23h0
						c15.5,13.78,39.45,12.38,53.23-3.11l496.69-558.42c-10.13-7.26-19.97-15.12-29.49-23.58
						C2227.17,1960.22,2218.22,1951.35,2209.83,1942.14z"/>
					<path class="st81" d="M2279.81,1920.2c-9.55-8.49-18.4-17.48-26.56-26.87l-43.42,48.82c8.39,9.21,17.34,18.07,26.86,26.54
						c9.52,8.46,19.36,16.32,29.49,23.58l43.42-48.82C2299.31,1936.43,2289.36,1928.69,2279.81,1920.2z"/>
					
						<linearGradient id="SVGID_77_" gradientUnits="userSpaceOnUse" x1="-879.521" y1="1802.1755" x2="5844.0581" y2="1802.1755" gradientTransform="matrix(0.9936 0.1131 -0.1131 0.9936 210.8279 -368.7448)">
						<stop  offset="0" style="stop-color:#4B5566"/>
						<stop  offset="1" style="stop-color:#2D334A"/>
					</linearGradient>
					<path class="st82" d="M2709.91,1436.64c-146.92-130.68-371.96-117.51-502.63,29.41c-122.21,137.4-118.61,343.13,2.55,476.09
						c8.39,9.21,17.34,18.07,26.86,26.54c9.52,8.46,19.36,16.32,29.49,23.58c146.19,104.82,350.93,84.41,473.14-52.99
						C2870,1792.36,2856.83,1567.32,2709.91,1436.64z M2690.83,1896.15c-98.37,110.59-262.11,128.5-381.23,47.29
						c-10.28-7.01-20.24-14.75-29.79-23.25c-9.55-8.49-18.4-17.48-26.56-26.87c-94.54-108.84-95.85-273.55,2.51-384.15
						c106.86-120.14,290.88-130.91,411.02-24.05C2786.92,1591.99,2797.69,1776.01,2690.83,1896.15z"/>
				</g>
				<linearGradient id="SVGID_78_" gradientUnits="userSpaceOnUse" x1="2303.4194" y1="1551.5706" x2="2552.5437" y2="1773.1549">
					<stop  offset="0" style="stop-color:#FCFFFE"/>
					<stop  offset="1" style="stop-color:#F6FFFB"/>
				</linearGradient>
				<path class="st83" d="M2667.32,1485.62c-161.58,67.27-323.17,134.54-484.75,201.81c-4.41,85.24,28.5,171.63,97.24,232.76
					c27.96,24.87,59.39,43.36,92.5,55.6c115.25-143.62,230.51-287.24,345.76-430.85
					C2704.22,1523.46,2687.29,1503.47,2667.32,1485.62z"/>
			</g>
			<g>
				<g>
					<path class="st22" d="M2056.39,2126.7c12.42,5.14,21.89,5.08,28.41,3.95c10.84-1.88,19.08-7.69,36.3-8.68
						c2.54-0.15,8.4-0.46,8.68,0.79c0.37,1.68-15.28,4.85-14.99,7.1c0.13,1.04,3.56,1.38,5.52,1.58c8.17,0.82,10.99-1.59,15.78-0.79
						c4.7,0.78,10.19,4.46,11.05,8.68c1.49,7.36-10.92,17.3-22.88,21.3c-9.92,3.32-17.29,1.8-42.61-2.37
						c-15.35-2.53-27.59-4.43-34.72-5.52c-0.36-0.68-4.87-9.67,0-18.15C2049.92,2129.37,2054.77,2127.31,2056.39,2126.7z"/>
					<path class="st23" d="M2094.27,2157.47c-7.21-1.7-14.05-3.57-20.52-5.52c-1.63-3.79-3.1-8.92-0.79-12.63
						c2.41-3.88,7.53-3.93,12.63-5.52c3.34-1.05,7.3-2.98,11.49-6.66c-4.16,1.42-8.02,2.77-12.28,3.5
						c-6.51,1.13-15.99,1.2-28.41-3.95c-1.62,0.61-6.47,2.67-9.47,7.89c-4.87,8.48-0.36,17.47,0,18.15c7.13,1.09,19.37,3,34.72,5.52
						c19.69,3.24,28.52,4.88,36.14,3.89C2110.28,2160.92,2102.43,2159.39,2094.27,2157.47z"/>
				</g>
				
					<linearGradient id="SVGID_79_" gradientUnits="userSpaceOnUse" x1="5803.6216" y1="2001.755" x2="5908.0332" y2="2146.0886" gradientTransform="matrix(-1 0 0 1 7728.104 0)">
					<stop  offset="0" style="stop-color:#4B5566"/>
					<stop  offset="1" style="stop-color:#2D334A"/>
				</linearGradient>
				<path class="st84" d="M1754.97,1898.66c14.47-1.28,29.87,9.78,37.87,27.62c20.25,49.18,40.51,98.37,60.76,147.55l218.57,53.66
					l-7.1,32.35c-36.55,3.73-82.17,5.3-134.14,0c-41.31-4.21-77.73-11.86-108.39-20.3c-12.06-3.32-23.28-9.19-32.81-17.31
					c-18.44-15.72-31.16-31.25-39.5-42.87c-12.56-17.52-30.06-41.91-35.51-78.12c-1.85-12.31-5.65-39.95,7.89-68.65
					C1727.27,1922.72,1737.89,1900.16,1754.97,1898.66z"/>
			</g>
		</g>
		<g>
			<linearGradient id="SVGID_80_" gradientUnits="userSpaceOnUse" x1="2981.9294" y1="633.3265" x2="3504.5823" y2="633.3265">
				<stop  offset="0" style="stop-color:#5D7C75"/>
				<stop  offset="1" style="stop-color:#496E6A"/>
			</linearGradient>
			<path class="st85" d="M3490.64,586.46l-49.92-1.47c-4.98-20.42-13.05-39.63-23.67-57.1l34.27-36.35
				c5.33-5.65,5.2-14.51-0.29-20.01l-45.98-45.98c-5.49-5.49-14.35-5.62-20.01-0.29l-36.35,34.27
				c-17.48-10.63-36.69-18.69-57.1-23.67l-1.47-49.92c-0.23-7.76-6.59-13.94-14.35-13.94h-65.03c-7.77,0-14.13,6.17-14.35,13.94
				l-1.47,49.92c-20.42,4.98-39.63,13.04-57.1,23.67l-36.35-34.27c-5.65-5.33-14.51-5.2-20.01,0.29l-45.98,45.98
				c-5.49,5.49-5.62,14.35-0.29,20.01l34.27,36.35c-10.63,17.48-18.69,36.69-23.67,57.1l-49.92,1.47
				c-7.76,0.23-13.94,6.59-13.94,14.35v65.03c0,7.77,6.18,14.13,13.94,14.35l49.92,1.47c4.98,20.42,13.04,39.63,23.67,57.1
				l-34.27,36.35c-5.33,5.65-5.2,14.51,0.29,20.01l45.98,45.98c5.49,5.49,14.35,5.62,20.01,0.29l36.35-34.27
				c17.48,10.63,36.69,18.69,57.1,23.67l1.47,49.92c0.23,7.76,6.59,13.94,14.35,13.94h65.03c7.77,0,14.13-6.17,14.35-13.94
				l1.47-49.92c20.42-4.98,39.63-13.04,57.1-23.67l36.35,34.27c5.65,5.33,14.51,5.2,20.01-0.29l45.98-45.98
				c5.49-5.49,5.62-14.35,0.29-20.01l-34.27-36.35c10.63-17.48,18.69-36.69,23.67-57.1l49.92-1.47c7.76-0.23,13.94-6.59,13.94-14.35
				v-65.03C3504.58,593.05,3498.41,586.69,3490.64,586.46z M3243.26,716.95c-46.18,0-83.62-37.44-83.62-83.62
				s37.44-83.62,83.62-83.62s83.62,37.44,83.62,83.62S3289.44,716.95,3243.26,716.95z"/>
			
				<linearGradient id="SVGID_81_" gradientUnits="userSpaceOnUse" x1="3315.3716" y1="927.236" x2="3750.0859" y2="927.236" gradientTransform="matrix(0.9737 -0.2278 0.2278 0.9737 -92.5611 905.1386)">
				<stop  offset="0" style="stop-color:#4B5566"/>
				<stop  offset="1" style="stop-color:#2D334A"/>
			</linearGradient>
			<path class="st86" d="M3749.98,918.51l-40.71,8.27c-7.9-15.59-18.07-29.62-29.99-41.76l20.87-35.93
				c3.24-5.59,1.46-12.74-4.03-16.15l-45.95-28.53c-5.49-3.41-12.69-1.83-16.26,3.55l-22.95,34.64c-16.17-5.3-33.25-8.19-50.73-8.35
				l-10.65-40.15c-1.66-6.24-7.98-10.04-14.27-8.57l-52.66,12.32c-6.29,1.47-10.27,7.68-8.98,14.01l8.27,40.7
				c-15.59,7.9-29.62,18.07-41.76,29.99l-35.93-20.87c-5.59-3.24-12.74-1.46-16.15,4.03l-28.53,45.95
				c-3.41,5.49-1.83,12.69,3.55,16.26l34.64,22.95c-5.3,16.17-8.19,33.25-8.35,50.73l-40.15,10.65c-6.24,1.66-10.04,7.98-8.57,14.27
				l12.32,52.66c1.47,6.29,7.68,10.27,14.01,8.98l40.7-8.27c7.9,15.59,18.07,29.62,29.99,41.76l-20.87,35.93
				c-3.24,5.59-1.46,12.74,4.03,16.15l45.95,28.53c5.49,3.41,12.69,1.83,16.26-3.55l22.95-34.64c16.17,5.3,33.25,8.19,50.73,8.35
				l10.65,40.15c1.66,6.24,7.98,10.04,14.27,8.57l52.66-12.32c6.29-1.47,10.27-7.68,8.98-14.01l-8.27-40.7
				c15.59-7.9,29.62-18.07,41.76-29.99l35.93,20.87c5.59,3.24,12.74,1.46,16.15-4.03l28.53-45.95c3.41-5.49,1.83-12.69-3.55-16.26
				l-34.64-22.94c5.3-16.17,8.19-33.25,8.35-50.73l40.15-10.65c6.24-1.66,10.04-7.98,8.57-14.27l-12.32-52.66
				C3762.52,921.2,3756.31,917.22,3749.98,918.51z M3574.35,1071.06c-37.4,8.75-74.82-14.48-83.57-51.88
				c-8.75-37.4,14.48-74.82,51.88-83.57c37.4-8.75,74.82,14.48,83.57,51.88C3634.98,1024.89,3611.75,1062.31,3574.35,1071.06z"/>
		</g>
	</g>
</g>
</svg>
